#N canvas 0 22 450 300 10;
#X obj 73 274 key;
#X floatatom 98 295 5 0 0 0 - - -, f 5;
#X obj 78 362 bng 15 250 50 0 D2_note empty a 17 7 0 10 -262144 -1
-1;
#X obj 399 280 key;
#X floatatom 435 306 5 0 0 0 - - -, f 5;
#X obj 388 357 bng 15 250 50 0 F2_note empty f 17 7 0 10 -262144 -1
-1;
#X obj 163 288 key;
#X floatatom 211 319 5 0 0 0 - - -, f 5;
#X obj 159 352 bng 15 250 50 0 D\$2_note empty s 17 7 0 10 -262144
-1 -1;
#X obj 290 284 key;
#X floatatom 326 306 5 0 0 0 - - -, f 5;
#X obj 284 360 bng 15 250 50 0 E2_note empty d 17 7 0 10 -262144 -1
-1;
#X obj 67 33 key;
#X floatatom 102 47 5 0 0 0 - - -, f 5;
#X obj 64 106 bng 15 250 50 0 E1_note empty 1 17 7 0 10 -262144 -1
-1;
#X obj 197 24 key;
#X floatatom 241 37 5 0 0 0 - - -, f 5;
#X obj 202 89 bng 15 250 50 0 F1_note empty 2 17 7 0 10 -262144 -1
-1;
#X obj 348 29 key;
#X floatatom 392 52 5 0 0 0 - - -, f 5;
#X obj 337 104 bng 15 250 50 0 F\$1_note empty 3 17 7 0 10 -262144
-1 -1;
#X obj 161 322 sel 115;
#X obj 280 329 sel 100;
#X obj 385 322 sel 102;
#X obj 68 330 sel 97;
#X obj 56 72 sel 49;
#X obj 196 57 sel 50;
#X obj 339 72 sel 51;
#X obj 609 29 key;
#X floatatom 652 54 5 0 0 0 - - -, f 5;
#X obj 615 105 bng 15 250 50 0 G\$1_note empty 5 17 7 0 10 -262144
-1 -1;
#X obj 74 143 key;
#X floatatom 99 164 5 0 0 0 - - -, f 5;
#X obj 79 231 bng 15 250 50 0 A1_note empty q 17 7 0 10 -262144 -1
-1;
#X obj 400 149 key;
#X floatatom 436 175 5 0 0 0 - - -, f 5;
#X obj 389 226 bng 15 250 50 0 C2_note empty r 17 7 0 10 -262144 -1
-1;
#X obj 164 157 key;
#X floatatom 210 169 5 0 0 0 - - -, f 5;
#X obj 160 221 bng 15 250 50 0 A\$1_note empty w 17 7 0 10 -262144
-1 -1;
#X obj 291 153 key;
#X floatatom 327 175 5 0 0 0 - - -, f 5;
#X obj 285 229 bng 15 250 50 0 B2_note empty e 17 7 0 10 -262144 -1
-1;
#X obj 69 199 sel 113;
#X obj 162 191 sel 119;
#X obj 281 198 sel 101;
#X obj 386 191 sel 114;
#X obj 63 420 key;
#X floatatom 98 434 5 0 0 0 - - -, f 5;
#X obj 60 493 bng 15 250 50 0 G2_note empty z 17 7 0 10 -262144 -1
-1;
#X obj 193 411 key;
#X floatatom 237 424 5 0 0 0 - - -, f 5;
#X obj 198 476 bng 15 250 50 0 G\$2_note empty x 17 7 0 10 -262144
-1 -1;
#X obj 344 416 key;
#X floatatom 388 439 5 0 0 0 - - -, f 5;
#X obj 333 491 bng 15 250 50 0 A2_note empty c 17 7 0 10 -262144 -1
-1;
#X obj 462 412 key;
#X floatatom 506 435 5 0 0 0 - - -, f 5;
#X obj 451 487 bng 15 250 50 0 A\$2_note empty v 17 7 0 10 -262144
-1 -1;
#X obj 52 459 sel 122;
#X obj 192 444 sel 120;
#X obj 335 459 sel 99;
#X obj 457 447 sel 118;
#X obj 560 265 key;
#X floatatom 604 288 5 0 0 0 - - -, f 5;
#X obj 549 340 bng 15 250 50 0 F\$2_note empty g 17 7 0 10 -262144
-1 -1;
#X obj 521 144 key;
#X floatatom 565 167 5 0 0 0 - - -, f 5;
#X obj 510 219 bng 15 250 50 0 C\$2_note empty t 17 7 0 10 -262144
-1 -1;
#X obj 584 420 key;
#X floatatom 628 443 5 0 0 0 - - -, f 5;
#X obj 573 495 bng 15 250 50 0 B3_note empty b 17 7 0 10 -262144 -1
-1;
#X obj 487 23 key;
#X floatatom 531 46 5 0 0 0 - - -, f 5;
#X obj 473 101 bng 15 250 50 0 G1_note empty 4 17 7 0 10 -262144 -1
-1;
#X obj 481 61 sel 52;
#X obj 610 69 sel 53;
#X obj 516 179 sel 116;
#X obj 555 300 sel 103;
#X obj 579 454 sel 98;
#X connect 0 0 1 0;
#X connect 0 0 24 0;
#X connect 3 0 4 0;
#X connect 3 0 23 0;
#X connect 6 0 7 0;
#X connect 6 0 21 0;
#X connect 9 0 10 0;
#X connect 9 0 22 0;
#X connect 12 0 13 0;
#X connect 12 0 25 0;
#X connect 15 0 16 0;
#X connect 15 0 26 0;
#X connect 18 0 19 0;
#X connect 18 0 27 0;
#X connect 21 0 8 0;
#X connect 22 0 11 0;
#X connect 23 0 5 0;
#X connect 24 0 2 0;
#X connect 25 0 14 0;
#X connect 26 0 17 0;
#X connect 27 0 20 0;
#X connect 28 0 29 0;
#X connect 28 0 76 0;
#X connect 31 0 32 0;
#X connect 31 0 43 0;
#X connect 34 0 35 0;
#X connect 34 0 46 0;
#X connect 37 0 38 0;
#X connect 37 0 44 0;
#X connect 40 0 41 0;
#X connect 40 0 45 0;
#X connect 43 0 33 0;
#X connect 44 0 39 0;
#X connect 45 0 42 0;
#X connect 46 0 36 0;
#X connect 47 0 48 0;
#X connect 47 0 59 0;
#X connect 50 0 51 0;
#X connect 50 0 60 0;
#X connect 53 0 54 0;
#X connect 53 0 61 0;
#X connect 56 0 57 0;
#X connect 56 0 62 0;
#X connect 59 0 49 0;
#X connect 60 0 52 0;
#X connect 61 0 55 0;
#X connect 62 0 58 0;
#X connect 63 0 64 0;
#X connect 63 0 78 0;
#X connect 66 0 67 0;
#X connect 66 0 77 0;
#X connect 69 0 70 0;
#X connect 69 0 79 0;
#X connect 72 0 73 0;
#X connect 72 0 75 0;
#X connect 75 0 74 0;
#X connect 76 0 30 0;
#X connect 77 0 68 0;
#X connect 78 0 65 0;
#X connect 79 0 71 0;
