#N canvas 156 49 450 300 10;
#X obj 29 107 vsl 15 128 0 1 0 0 amp empty Amplitude 0 -9 0 10 -262144
-1 -1 0 1;
#X floatatom 29 243 5 0 0 0 - - -, f 5;
#X obj 179 37 hsl 128 15 60 180 0 0 tempo empty Tempo -2 -8 0 10 -262144
-1 -1 0 1;
#X floatatom 176 57 5 0 0 0 - - tempo, f 5;
#N canvas 788 161 656 514 metronome 0;
#X obj 154 136 bng 15 250 50 0 metroBang empty MetroBang 17 7 0 10
-262144 -1 -1;
#X obj 155 173 f;
#X obj 188 174 + 1;
#X obj 154 206 % 4;
#X floatatom 154 230 5 0 0 0 - - -, f 5;
#X floatatom 192 360 5 0 0 1 RandomValue - RandomValue, f 5;
#X obj 107 267 == 0;
#X text 27 269 Next chord;
#X obj 94 390 f;
#X obj 128 389 + 1;
#X floatatom 91 442 5 0 0 0 Current_Chord - currentChord, f 5;
#X floatatom 130 346 5 0 0 0 - currentChord -, f 5;
#X obj 115 367 +;
#X floatatom 411 59 5 0 0 0 Current_Chord currentChord -, f 5;
#X obj 398 217 tgl 15 0 chord1 empty chord1 17 7 0 10 -262144 -1 -1
0 1;
#X obj 438 359 tgl 15 0 chord2 empty chord2 17 7 0 10 -262144 -1 -1
0 1;
#X obj 441 438 tgl 15 0 chord3 empty chord3 17 7 0 10 -262144 -1 -1
0 1;
#X obj 127 66 tgl 15 0 empty isPlaying empty 17 7 0 10 -262144 -1 -1
0 1;
#X obj 120 149 == 0;
#X floatatom 78 152 5 0 0 0 - - -, f 5;
#X obj 85 175 *;
#X obj 389 88 == 3;
#X obj 192 335 + 1;
#X obj 94 414 % 12;
#X obj 293 87 == 0;
#X obj 325 87 == 1;
#X obj 358 87 == 2;
#X obj 191 298 random 5;
#X floatatom 421 266 5 0 0 0 Current_Chord currentChord -, f 5;
#X obj 408 295 == 4;
#X obj 440 295 == 5;
#X obj 420 88 == 6;
#X obj 451 88 == 7;
#X floatatom 410 390 5 0 0 0 Current_Chord currentChord -, f 5;
#X obj 442 414 == 8;
#X obj 472 296 == 9;
#X obj 483 89 == 10;
#X obj 521 90 == 11;
#X obj 370 124 +;
#X obj 445 126 +;
#X obj 493 124 +;
#X obj 381 166 +;
#X obj 432 170 +;
#X obj 399 194 +;
#X obj 325 129 +;
#X obj 439 337 +;
#X obj 423 317 +, f 2;
#X obj 154 108 metro;
#X floatatom 189 15 5 0 0 0 - tempo -, f 5;
#X obj 141 10 bng 15 250 50 0 empty tempoBang empty 17 7 0 10 -262144
-1 -1;
#X obj 152 24 6000;
#X obj 157 49 /;
#X obj 167 73 * 10;
#X obj 463 271 bng 15 250 50 0 empty metroBang empty 17 7 0 10 -262144
-1 -1;
#X obj 460 55 bng 15 250 50 0 empty metroBang empty 17 7 0 10 -262144
-1 -1;
#X obj 486 388 bng 15 250 50 0 empty metroBang empty 17 7 0 10 -262144
-1 -1;
#X floatatom 215 100 5 0 0 0 - - tempoValue, f 5;
#X obj 189 267 bng 15 250 50 0 empty empty empty 17 7 0 10 -262144
-1 -1;
#X connect 0 0 1 0;
#X connect 1 0 2 0;
#X connect 1 0 3 0;
#X connect 2 0 1 1;
#X connect 3 0 4 0;
#X connect 4 0 6 0;
#X connect 4 0 57 0;
#X connect 6 0 12 0;
#X connect 8 0 9 0;
#X connect 8 0 23 0;
#X connect 9 0 8 1;
#X connect 11 0 12 1;
#X connect 12 0 8 0;
#X connect 13 0 21 0;
#X connect 13 0 24 0;
#X connect 13 0 25 0;
#X connect 13 0 26 0;
#X connect 13 0 31 0;
#X connect 13 0 32 0;
#X connect 13 0 37 0;
#X connect 13 0 36 0;
#X connect 17 0 18 0;
#X connect 17 0 47 0;
#X connect 18 0 20 0;
#X connect 19 0 20 1;
#X connect 20 0 1 0;
#X connect 20 0 8 0;
#X connect 21 0 38 1;
#X connect 22 0 5 0;
#X connect 23 0 10 0;
#X connect 24 0 44 0;
#X connect 25 0 44 1;
#X connect 26 0 38 0;
#X connect 27 0 22 0;
#X connect 28 0 29 0;
#X connect 28 0 30 0;
#X connect 28 0 35 0;
#X connect 29 0 46 0;
#X connect 30 0 46 1;
#X connect 31 0 39 0;
#X connect 32 0 39 1;
#X connect 33 0 34 0;
#X connect 34 0 16 0;
#X connect 35 0 45 1;
#X connect 36 0 40 0;
#X connect 37 0 40 1;
#X connect 38 0 41 1;
#X connect 39 0 42 0;
#X connect 40 0 42 1;
#X connect 41 0 43 0;
#X connect 42 0 43 1;
#X connect 43 0 14 0;
#X connect 44 0 41 0;
#X connect 45 0 15 0;
#X connect 46 0 45 0;
#X connect 47 0 0 0;
#X connect 48 0 51 1;
#X connect 49 0 50 0;
#X connect 50 0 51 0;
#X connect 51 0 52 0;
#X connect 52 0 47 1;
#X connect 52 0 56 0;
#X connect 53 0 29 0;
#X connect 53 0 30 0;
#X connect 53 0 35 0;
#X connect 54 0 24 0;
#X connect 54 0 25 0;
#X connect 54 0 26 0;
#X connect 54 0 21 0;
#X connect 54 0 31 0;
#X connect 54 0 32 0;
#X connect 54 0 36 0;
#X connect 54 0 37 0;
#X connect 55 0 34 0;
#X connect 57 0 27 0;
#X restore 117 397 pd metronome;
#N canvas 934 197 566 370 RandomChords 0;
#X obj 103 27 tgl 15 0 empty chord1 Chord_1 17 7 0 10 -262144 -1 -1
0 1;
#X floatatom 65 25 5 0 0 0 - RandomValue -, f 5;
#X obj 84 50 *;
#X obj 29 157 bng 15 250 50 0 F1_note empty F1 17 7 0 10 -262144 -1
-1;
#X obj 147 159 bng 15 250 50 0 F2_note empty F2 17 7 0 10 -262144 -1
-1;
#X obj 66 158 bng 15 250 50 0 A1_note empty A1 17 7 0 10 -262144 -1
-1;
#X obj 183 158 bng 15 250 50 0 A2_note empty A2 17 7 0 10 -262144 -1
-1;
#X obj 106 158 bng 15 250 50 0 C\$2_note empty C\$2 17 7 0 10 -262144
-1 -1;
#X floatatom 257 19 5 0 0 0 - RandomValue -, f 5;
#X obj 271 152 bng 15 250 50 0 B2_note empty B2 17 7 0 10 -262144 -1
-1;
#X obj 305 153 bng 15 250 50 0 D2_note empty D2 17 7 0 10 -262144 -1
-1;
#X obj 343 152 bng 15 250 50 0 F2_note empty F2 17 7 0 10 -262144 -1
-1;
#X obj 375 148 bng 15 250 50 0 B3_note empty B3 17 7 0 10 -262144 -1
-1;
#X obj 238 152 bng 15 250 50 0 F1_note empty F1 17 7 0 10 -262144 -1
-1;
#X obj 67 230 tgl 15 0 empty chord3 Chord_3 17 7 0 10 -262144 -1 -1
0 1;
#X floatatom 26 229 5 0 0 0 - RandomValue -, f 5;
#X obj 50 255 *;
#X obj 62 327 bng 15 250 50 0 G1_note empty G1 17 7 0 10 -262144 -1
-1;
#X obj 96 328 bng 15 250 50 0 A\$1_note empty A\$1 17 7 0 10 -262144
-1 -1;
#X obj 134 327 bng 15 250 50 0 E2_note empty E2 17 7 0 10 -262144 -1
-1;
#X obj 166 329 bng 15 250 50 0 G2_note empty G2 17 7 0 10 -262144 -1
-1;
#X obj 29 327 bng 15 250 50 0 E_note empty E1 17 7 0 10 -262144 -1
-1;
#X obj 63 126 select 0 1 2 3 4 5;
#X obj 258 119 select 0 1 2 3 4 5;
#X obj 47 284 select 0 1 2 3 4 5;
#X obj 288 50 *;
#X obj 324 21 tgl 15 0 empty chord2 Chord_2 17 7 0 10 -262144 -1 -1
0 1;
#X floatatom 68 103 5 0 0 0 - - -, f 5;
#X connect 0 0 2 1;
#X connect 1 0 2 0;
#X connect 2 0 27 0;
#X connect 8 0 25 0;
#X connect 14 0 16 1;
#X connect 15 0 16 0;
#X connect 16 0 24 0;
#X connect 22 1 3 0;
#X connect 22 2 5 0;
#X connect 22 3 7 0;
#X connect 22 4 4 0;
#X connect 22 5 6 0;
#X connect 23 1 13 0;
#X connect 23 2 9 0;
#X connect 23 3 10 0;
#X connect 23 4 11 0;
#X connect 23 5 12 0;
#X connect 24 1 21 0;
#X connect 24 2 17 0;
#X connect 24 3 18 0;
#X connect 24 4 19 0;
#X connect 24 5 20 0;
#X connect 25 0 23 0;
#X connect 26 0 25 1;
#X connect 27 0 22 0;
#X restore 227 401 pd RandomChords;
#X obj 189 269 tgl 25 0 isPlaying empty PLAY! 17 7 0 10 -262144 -1
-1 0 1;
#N canvas 55 50 1151 491 lastBeat 0;
#X obj 495 177 random 2;
#X obj 495 129 bng 15 250 50 0 empty empty empty 17 7 0 10 -262144
-1 -1;
#X obj 980 79 bng 15 250 50 0 empty empty empty 17 7 0 10 -262144 -1
-1;
#X obj 1022 273 bng 15 250 50 0 empty empty Eb2 17 7 0 10 -262144 -1
-1;
#X obj 950 272 bng 15 250 50 0 empty empty C\$1 17 7 0 10 -262144 -1
-1;
#X text 47 8 Phase 1;
#X text 429 131 Phase 2;
#X text 708 88 Phase 3;
#X text 926 80 Phase 4;
#X obj 139 214 select 0 1;
#X obj 195 378 bng 15 250 50 0 empty empty G\$1 17 7 0 10 -262144 -1
-1;
#X obj 44 335 del 500;
#X obj 195 336 del 500;
#X obj 44 376 bng 15 250 50 0 empty empty F\$1 17 7 0 10 -262144 -1
-1;
#X obj 75 291 select 0 1;
#X obj 186 293 select 0 1;
#X obj 121 336 del 500;
#X obj 121 377 bng 15 250 50 0 empty empty F\$2 17 7 0 10 -262144 -1
-1;
#X obj 258 375 bng 15 250 50 0 empty empty G\$2 17 7 0 10 -262144 -1
-1;
#X obj 258 332 del 500;
#X obj 451 405 bng 15 250 50 0 empty empty B2 17 7 0 10 -262144 -1
-1;
#X obj 382 364 del 500;
#X obj 455 363 del 500;
#X obj 561 306 bng 15 250 50 0 empty empty C\$1 17 7 0 10 -262144 -1
-1;
#X obj 379 404 bng 15 250 50 0 empty empty B1 17 7 0 10 -262144 -1
-1;
#X obj 553 263 del 500;
#X obj 473 206 select 0 1;
#X obj 409 283 select 0 1;
#X obj 140 191 random 2;
#X obj 761 139 random 2;
#X obj 761 91 bng 15 250 50 0 empty empty empty 17 7 0 10 -262144 -1
-1;
#X obj 717 367 bng 15 250 50 0 empty empty B2 17 7 0 10 -262144 -1
-1;
#X obj 648 326 del 500;
#X obj 721 325 del 500;
#X obj 827 268 bng 15 250 50 0 empty empty C\$1 17 7 0 10 -262144 -1
-1;
#X obj 645 366 bng 15 250 50 0 empty empty B1 17 7 0 10 -262144 -1
-1;
#X obj 819 225 del 500;
#X obj 739 168 select 0 1;
#X obj 675 245 select 0 1;
#X obj 960 187 select 0 1;
#X obj 83 258 random 2;
#X obj 194 260 random 2;
#X obj 417 250 random 2;
#X obj 683 212 random 2;
#X obj 980 127 random 2;
#X obj 941 237 del 500;
#X obj 1022 237 del 500;
#X obj 122 24 bng 15 250 50 0 empty metroBang empty 17 7 0 10 -262144
-1 -1;
#X obj 167 22 tgl 15 0 empty chord1 chord_1 17 7 0 10 -262144 -1 -1
0 1;
#X obj 139 64 *;
#X obj 192 95 tgl 15 0 empty lastBeatNote last_beat_note 17 7 0 10
-262144 -1 -1 0 1;
#X floatatom 138 93 5 0 0 0 - - -, f 5;
#X floatatom 168 43 5 0 0 0 - - -, f 5;
#X obj 82 37 1;
#X obj 140 136 *;
#X floatatom 192 117 5 0 0 0 - - -, f 5;
#X connect 0 0 26 0;
#X connect 1 0 0 0;
#X connect 2 0 44 0;
#X connect 9 0 40 0;
#X connect 9 1 41 0;
#X connect 11 0 13 0;
#X connect 12 0 10 0;
#X connect 14 0 11 0;
#X connect 14 1 16 0;
#X connect 15 0 12 0;
#X connect 15 1 19 0;
#X connect 16 0 17 0;
#X connect 19 0 18 0;
#X connect 21 0 24 0;
#X connect 22 0 20 0;
#X connect 25 0 23 0;
#X connect 26 0 42 0;
#X connect 26 1 25 0;
#X connect 27 0 21 0;
#X connect 27 1 22 0;
#X connect 28 0 9 0;
#X connect 29 0 37 0;
#X connect 30 0 29 0;
#X connect 32 0 35 0;
#X connect 33 0 31 0;
#X connect 36 0 34 0;
#X connect 37 0 43 0;
#X connect 37 1 36 0;
#X connect 38 0 32 0;
#X connect 38 1 33 0;
#X connect 39 0 45 0;
#X connect 39 1 46 0;
#X connect 40 0 14 0;
#X connect 41 0 15 0;
#X connect 42 0 27 0;
#X connect 43 0 38 0;
#X connect 44 0 39 0;
#X connect 45 0 4 0;
#X connect 46 0 3 0;
#X connect 47 0 49 0;
#X connect 47 0 54 0;
#X connect 48 0 52 0;
#X connect 49 0 51 0;
#X connect 50 0 55 0;
#X connect 51 0 54 0;
#X connect 52 0 49 0;
#X connect 53 0 49 0;
#X connect 55 0 54 1;
#X restore 363 397 pd lastBeat;
#X obj 140 57 bng 15 250 50 0 tempoBang empty empty 17 7 0 10 -262144
-1 -1;
#X obj 411 142 cnv 15 80 1 empty empty empty 20 12 0 14 -204800 -66577
0;
#X obj 410 179 cnv 15 80 1 empty empty empty 20 12 0 14 -204800 -66577
0;
#X obj 406 220 cnv 15 90 60 empty empty empty 20 12 0 14 -241339 -66577
0;
#X obj 408 291 cnv 15 80 3 empty empty empty 20 12 0 14 -260097 -66577
0;
#X obj 441 70 cnv 15 2 220 empty empty empty 20 12 0 14 -191407 -66577
0;
#X obj 424 70 cnv 15 2 220 empty F1 empty 20 12 0 14 -191407 -33289
0;
#X obj 475 70 cnv 15 2 220 empty empty empty 20 12 0 14 -191407 -66577
0;
#X obj 458 70 cnv 15 2 220 empty empty empty 20 12 0 14 -191407 -66577
0;
#X obj 434 79 tgl 15 0 empty A\$1 empty 17 7 0 10 -262144 -1 -1 0 1
;
#X obj 417 79 tgl 15 0 empty F1 empty 17 7 0 10 -262144 -1 -1 0 1;
#X obj 468 79 tgl 15 0 empty G\$2 empty 17 7 0 10 -262144 -1 -1 0 1
;
#X obj 451 79 tgl 15 0 empty D\$2 empty 17 7 0 10 -262144 -1 -1 0 1
;
#X obj 434 116 tgl 15 0 empty B1 empty 17 7 0 10 -262144 -1 -1 0 1
;
#X obj 417 116 tgl 15 0 empty F\$1 empty 17 7 0 10 -262144 -1 -1 0
1;
#X obj 468 116 tgl 15 0 empty A2 empty 17 7 0 10 -262144 -1 -1 0 1
;
#X obj 451 116 tgl 15 0 empty E2 empty 17 7 0 10 -262144 -1 -1 0 1
;
#X obj 434 154 tgl 15 0 empty C2 empty 17 7 0 10 -262144 -1 -1 0 1
;
#X obj 417 154 tgl 15 0 empty G1 empty 17 7 0 10 -262144 -1 -1 0 1
;
#X obj 468 154 tgl 15 0 empty A\$2 empty 17 7 0 10 -262144 -1 -1 0
1;
#X obj 451 154 tgl 15 0 empty F2 empty 17 7 0 10 -262144 -1 -1 0 1
;
#X obj 434 190 tgl 15 0 empty C\$2 empty 17 7 0 10 -262144 -1 -1 0
1;
#X obj 417 190 tgl 15 0 empty G\$1 empty 17 7 0 10 -262144 -1 -1 0
1;
#X obj 468 190 tgl 15 0 empty B3 empty 17 7 0 10 -262144 -1 -1 0 1
;
#X obj 451 190 tgl 15 0 empty F\$2 empty 17 7 0 10 -262144 -1 -1 0
1;
#X obj 434 235 tgl 15 0 empty A1 empty 17 7 0 10 -262144 -1 -1 0 1
;
#X obj 417 235 tgl 15 0 empty E1 empty 17 7 0 10 -262144 -1 -1 0 1
;
#X obj 468 235 tgl 15 0 empty G2 empty 17 7 0 10 -262144 -1 -1 0 1
;
#X obj 451 235 tgl 15 0 empty D2 empty 17 7 0 10 -262144 -1 -1 0 1
;
#X obj 411 103 cnv 15 80 1 empty empty empty 20 12 0 14 -204800 -66577
0;
#X text 361 77 Fret 1;
#X text 362 115 Fret 2;
#X text 362 152 Fret 3;
#X text 362 188 Fret 4;
#X text 470 48 G;
#X text 453 49 D;
#X text 436 48 A;
#X text 419 49 E;
#X text 363 235 (Open);
#N canvas 469 298 620 443 D_String 0;
#X obj 357 161 bng 15 250 50 0 empty D_string bang_from_notes 17 7
0 10 -262144 -1 -1;
#X obj 215 321 *~;
#X obj 316 284 line~;
#X obj 215 381 dac~;
#X msg 293 213 1 10;
#X obj 373 213 del 10;
#X msg 373 247 0 2990;
#X obj 7 99 tgl 15 0 D2 empty D2_GUI 17 7 0 10 -262144 -1 -1 0 1;
#X obj 7 33 bng 15 250 50 0 D_string D2_note empty 17 7 0 10 -262144
-1 -1;
#X obj 75 97 tgl 15 0 D\$2 empty D\$2_GUI 17 7 0 10 -262144 -1 -1 0
1;
#X obj 75 31 bng 15 250 50 0 D_string D\$2_note empty 17 7 0 10 -262144
-1 -1;
#X obj 146 97 tgl 15 0 E2 empty E2_GUI 17 7 0 10 -262144 -1 -1 0 1
;
#X obj 146 31 bng 15 250 50 0 D_string E2_note empty 17 7 0 10 -262144
-1 -1;
#X obj 215 96 tgl 15 0 F2 empty F2_GUI 17 7 0 10 -262144 -1 -1 0 1
;
#X obj 215 30 bng 15 250 50 0 D_string F2_note empty 17 7 0 10 -262144
-1 -1;
#X obj 281 96 tgl 15 0 F\$2 empty F\$2_GUI 17 7 0 10 -262144 -1 -1
0 1;
#X obj 281 30 bng 15 250 50 0 D_string F\$2_note empty 17 7 0 10 -262144
-1 -1;
#X text 391 14 D String;
#X msg 9 137 73.2;
#X msg 74 134 77.8;
#X msg 146 131 82.4;
#X msg 280 132 92.5;
#X floatatom 501 130 5 0 0 0 - tempo -, f 5;
#X obj 463 116 bng 15 250 50 0 empty tempoBang empty 17 7 0 10 -262144
-1 -1;
#X obj 464 139 6000;
#X obj 469 164 /;
#X obj 470 187 * 10;
#X obj 443 219 del;
#X obj 440 250 0 0;
#X msg 213 132 87.31;
#X floatatom 578 63 5 0 0 0 - phasorToggle -, f 5;
#X obj 578 84 == 0;
#X obj 565 113 *;
#X floatatom 565 137 5 0 0 0 - - natural_note, f 5;
#X obj 392 61 38;
#X obj 424 59 39;
#X obj 459 56 40;
#X obj 493 54 41;
#X obj 533 51 42;
#X floatatom 142 226 5 0 0 0 - amp -, f 5;
#X floatatom 214 265 5 0 0 0 - phasorToggle -, f 5;
#X obj 149 294 *~;
#X obj 110 251 *~;
#X floatatom 150 4 5 0 0 0 - tempoValue -, f 5;
#X obj 13 65 del;
#X obj 81 63 del;
#X obj 152 63 del;
#X obj 221 62 del;
#X obj 287 62 del;
#X obj 67 203 phasor~;
#X connect 0 0 4 0;
#X connect 0 0 5 0;
#X connect 0 0 27 0;
#X connect 1 0 3 1;
#X connect 1 0 3 0;
#X connect 2 0 1 1;
#X connect 4 0 2 0;
#X connect 5 0 6 0;
#X connect 6 0 2 0;
#X connect 7 0 18 0;
#X connect 8 0 7 0;
#X connect 8 0 34 0;
#X connect 8 0 44 0;
#X connect 9 0 19 0;
#X connect 10 0 9 0;
#X connect 10 0 35 0;
#X connect 10 0 45 0;
#X connect 11 0 20 0;
#X connect 12 0 11 0;
#X connect 12 0 36 0;
#X connect 12 0 46 0;
#X connect 13 0 29 0;
#X connect 14 0 13 0;
#X connect 14 0 37 0;
#X connect 14 0 47 0;
#X connect 15 0 21 0;
#X connect 16 0 15 0;
#X connect 16 0 38 0;
#X connect 16 0 48 0;
#X connect 18 0 49 0;
#X connect 19 0 49 0;
#X connect 20 0 49 0;
#X connect 21 0 49 0;
#X connect 22 0 25 1;
#X connect 23 0 24 0;
#X connect 24 0 25 0;
#X connect 25 0 26 0;
#X connect 26 0 27 1;
#X connect 27 0 28 0;
#X connect 28 0 2 0;
#X connect 29 0 49 0;
#X connect 30 0 31 0;
#X connect 31 0 32 1;
#X connect 32 0 33 0;
#X connect 34 0 32 0;
#X connect 35 0 32 0;
#X connect 36 0 32 0;
#X connect 37 0 32 0;
#X connect 38 0 32 0;
#X connect 39 0 42 1;
#X connect 40 0 41 1;
#X connect 41 0 1 0;
#X connect 42 0 41 0;
#X connect 43 0 44 1;
#X connect 43 0 45 1;
#X connect 43 0 46 1;
#X connect 43 0 47 1;
#X connect 43 0 48 1;
#X connect 44 0 7 0;
#X connect 45 0 9 0;
#X connect 46 0 11 0;
#X connect 47 0 13 0;
#X connect 48 0 15 0;
#X connect 49 0 42 0;
#X restore 291 469 pd D_String;
#N canvas 60 196 708 643 A_String 0;
#X obj 357 158 bng 15 250 50 0 empty A_string bang_from_notes 17 7
0 10 -262144 -1 -1;
#X obj 215 321 *~;
#X obj 306 284 line~;
#X obj 215 381 dac~;
#X msg 283 213 1 10;
#X obj 363 213 del 10;
#X msg 363 247 0 2990;
#X obj 7 99 tgl 15 0 A1 empty A1_GUI 17 7 0 10 -262144 -1 -1 0 1;
#X obj 7 33 bng 15 250 50 0 A_string A1_note empty 17 7 0 10 -262144
-1 -1;
#X obj 75 97 tgl 15 0 A\$1 empty A\$1_GUI 17 7 0 10 -262144 -1 -1 0
1;
#X obj 75 31 bng 15 250 50 0 A_string A\$1_note empty 17 7 0 10 -262144
-1 -1;
#X obj 146 97 tgl 15 0 B1 empty B1_GUI 17 7 0 10 -262144 -1 -1 0 1
;
#X obj 146 31 bng 15 250 50 0 A_string B2_note empty 17 7 0 10 -262144
-1 -1;
#X obj 215 96 tgl 15 0 C2 empty C2_GUI 17 7 0 10 -262144 -1 -1 0 1
;
#X obj 215 30 bng 15 250 50 0 A_string C2_note empty 17 7 0 10 -262144
-1 -1;
#X obj 281 96 tgl 15 0 C\$2 empty C\$2_GUI 17 7 0 10 -262144 -1 -1
0 1;
#X obj 281 30 bng 15 250 50 0 A_string C\$2_note empty 17 7 0 10 -262144
-1 -1;
#X text 391 14 A String;
#X floatatom 512 120 5 0 0 0 - tempo -, f 5;
#X obj 474 106 bng 15 250 50 0 empty tempoBang empty 17 7 0 10 -262144
-1 -1;
#X obj 475 129 6000;
#X obj 480 154 /;
#X obj 481 177 * 10;
#X obj 435 222 del;
#X obj 432 253 0 0;
#X msg 10 133 55;
#X msg 75 131 58.27;
#X msg 146 129 61.74;
#X msg 215 127 65.41;
#X msg 279 126 69.3;
#X floatatom 578 63 5 0 0 0 - phasorToggle -, f 5;
#X obj 578 84 == 0;
#X obj 565 113 *;
#X floatatom 565 137 5 0 0 0 - - natural_note, f 5;
#X obj 392 61 33;
#X obj 424 59 34;
#X obj 459 56 35;
#X obj 493 54 36;
#X obj 533 51 37;
#X floatatom 187 200 5 0 0 0 - amp -, f 5;
#X floatatom 212 258 5 0 0 0 - phasorToggle -, f 5;
#X obj 147 287 *~;
#X obj 108 244 *~;
#X floatatom 166 9 5 0 0 0 - tempoValue -, f 5;
#X obj 13 65 del;
#X obj 81 63 del;
#X obj 152 63 del;
#X obj 221 62 del;
#X obj 287 62 del;
#X obj 66 186 phasor~;
#X connect 0 0 4 0;
#X connect 0 0 5 0;
#X connect 0 0 23 0;
#X connect 1 0 3 1;
#X connect 1 0 3 0;
#X connect 2 0 1 1;
#X connect 4 0 2 0;
#X connect 5 0 6 0;
#X connect 6 0 2 0;
#X connect 7 0 25 0;
#X connect 8 0 7 0;
#X connect 8 0 34 0;
#X connect 8 0 44 0;
#X connect 9 0 26 0;
#X connect 10 0 9 0;
#X connect 10 0 35 0;
#X connect 10 0 45 0;
#X connect 11 0 27 0;
#X connect 12 0 11 0;
#X connect 12 0 36 0;
#X connect 12 0 46 0;
#X connect 13 0 28 0;
#X connect 14 0 13 0;
#X connect 14 0 37 0;
#X connect 14 0 47 0;
#X connect 15 0 29 0;
#X connect 16 0 15 0;
#X connect 16 0 38 0;
#X connect 16 0 48 0;
#X connect 18 0 21 1;
#X connect 19 0 20 0;
#X connect 20 0 21 0;
#X connect 21 0 22 0;
#X connect 22 0 23 1;
#X connect 23 0 24 0;
#X connect 24 0 2 0;
#X connect 25 0 49 0;
#X connect 26 0 49 0;
#X connect 27 0 49 0;
#X connect 28 0 49 0;
#X connect 29 0 49 0;
#X connect 30 0 31 0;
#X connect 31 0 32 1;
#X connect 32 0 33 0;
#X connect 34 0 32 0;
#X connect 35 0 32 0;
#X connect 36 0 32 0;
#X connect 37 0 32 0;
#X connect 38 0 32 0;
#X connect 39 0 42 1;
#X connect 40 0 41 1;
#X connect 41 0 1 0;
#X connect 42 0 41 0;
#X connect 43 0 44 1;
#X connect 43 0 45 1;
#X connect 43 0 46 1;
#X connect 43 0 47 1;
#X connect 43 0 48 1;
#X connect 44 0 7 0;
#X connect 45 0 9 0;
#X connect 46 0 11 0;
#X connect 47 0 13 0;
#X connect 48 0 15 0;
#X connect 49 0 42 0;
#X restore 189 468 pd A_String;
#N canvas 425 493 799 438 G_String 0;
#X obj 337 190 bng 15 250 50 0 empty G_string bang_from_notes 17 7
0 10 -262144 -1 -1;
#X obj 221 346 *~;
#X obj 271 321 line~;
#X obj 221 406 dac~;
#X msg 268 242 1 10;
#X obj 329 242 del 10;
#X msg 329 263 0 2990;
#X obj 22 111 tgl 15 0 G2 empty G2_GUI 17 7 0 10 -262144 -1 -1 0 1
;
#X obj 22 45 bng 15 250 50 0 G_string G2_note empty 17 7 0 10 -262144
-1 -1;
#X obj 90 109 tgl 15 0 G\$2 empty G\$2_GUI 17 7 0 10 -262144 -1 -1
0 1;
#X obj 90 43 bng 15 250 50 0 G_string G\$2_note empty 17 7 0 10 -262144
-1 -1;
#X obj 161 109 tgl 15 0 A2 empty A2_GUI 17 7 0 10 -262144 -1 -1 0 1
;
#X obj 161 43 bng 15 250 50 0 G_string A2_note empty 17 7 0 10 -262144
-1 -1;
#X obj 230 108 tgl 15 0 A\$2 empty A\$2_GUI 17 7 0 10 -262144 -1 -1
0 1;
#X obj 230 42 bng 15 250 50 0 G_string A\$2_note empty 17 7 0 10 -262144
-1 -1;
#X obj 296 108 tgl 15 0 B3 empty B3_GUI 17 7 0 10 -262144 -1 -1 0 1
;
#X obj 296 42 bng 15 250 50 0 G_string B3_note empty 17 7 0 10 -262144
-1 -1;
#X text 345 20 G String;
#X floatatom 483 144 5 0 0 0 - tempo -, f 5;
#X obj 445 130 bng 15 250 50 0 empty tempoBang empty 17 7 0 10 -262144
-1 -1;
#X obj 446 153 6000;
#X obj 451 178 /;
#X obj 452 201 * 10;
#X obj 406 246 del;
#X obj 403 277 0 0;
#X msg 23 139 98;
#X msg 89 141 103.83;
#X msg 162 139 110;
#X msg 230 138 116.54;
#X msg 297 137 123.47;
#X floatatom 578 76 5 0 0 0 - phasorToggle -, f 5;
#X obj 578 97 == 0;
#X obj 565 126 *;
#X floatatom 565 150 5 0 0 0 - - natural_note, f 5;
#X obj 392 73 43;
#X obj 424 72 44;
#X obj 459 69 45;
#X obj 494 67 46;
#X obj 532 63 47;
#X floatatom 147 220 5 0 0 0 - amp -, f 5;
#X floatatom 222 263 5 0 0 0 - phasorToggle -, f 5;
#X obj 157 292 *~;
#X obj 118 249 *~;
#X floatatom 174 11 5 0 0 0 - tempoValue -, f 5;
#X obj 302 74 del;
#X obj 236 74 del;
#X obj 167 75 del;
#X obj 96 75 del;
#X obj 28 77 del;
#X obj 81 198 phasor~;
#X connect 0 0 4 0;
#X connect 0 0 5 0;
#X connect 0 0 23 0;
#X connect 1 0 3 1;
#X connect 1 0 3 0;
#X connect 2 0 1 1;
#X connect 4 0 2 0;
#X connect 5 0 6 0;
#X connect 6 0 2 0;
#X connect 7 0 25 0;
#X connect 8 0 7 0;
#X connect 8 0 34 0;
#X connect 8 0 48 0;
#X connect 9 0 26 0;
#X connect 10 0 9 0;
#X connect 10 0 35 0;
#X connect 10 0 47 0;
#X connect 11 0 27 0;
#X connect 12 0 11 0;
#X connect 12 0 36 0;
#X connect 12 0 46 0;
#X connect 13 0 28 0;
#X connect 14 0 13 0;
#X connect 14 0 37 0;
#X connect 14 0 45 0;
#X connect 15 0 29 0;
#X connect 16 0 15 0;
#X connect 16 0 38 0;
#X connect 16 0 44 0;
#X connect 18 0 21 1;
#X connect 19 0 20 0;
#X connect 20 0 21 0;
#X connect 21 0 22 0;
#X connect 22 0 23 1;
#X connect 23 0 24 0;
#X connect 24 0 2 0;
#X connect 25 0 49 0;
#X connect 26 0 49 0;
#X connect 27 0 49 0;
#X connect 28 0 49 0;
#X connect 29 0 49 0;
#X connect 30 0 31 0;
#X connect 31 0 32 1;
#X connect 32 0 33 0;
#X connect 34 0 32 0;
#X connect 35 0 32 0;
#X connect 36 0 32 0;
#X connect 37 0 32 0;
#X connect 38 0 32 0;
#X connect 39 0 42 1;
#X connect 40 0 41 1;
#X connect 41 0 1 0;
#X connect 42 0 41 0;
#X connect 43 0 44 1;
#X connect 43 0 45 1;
#X connect 43 0 46 1;
#X connect 43 0 47 1;
#X connect 43 0 48 1;
#X connect 44 0 15 0;
#X connect 45 0 13 0;
#X connect 46 0 11 0;
#X connect 47 0 9 0;
#X connect 48 0 7 0;
#X connect 49 0 42 0;
#X restore 393 469 pd G_String;
#N canvas 1070 159 720 528 E_String 0;
#X obj 360 180 bng 15 250 50 0 empty E_string bang_from_notes 17 7
0 10 -262144 -1 -1;
#X obj 215 321 *~;
#X obj 308 305 line~;
#X obj 215 381 dac~;
#X msg 285 234 1 10;
#X obj 365 234 del 10;
#X msg 365 268 0 2990;
#X text 391 14 E String;
#X obj 7 99 tgl 15 0 E1 empty E1_GUI 17 7 0 10 -262144 -1 -1 0 1;
#X obj 7 33 bng 15 250 50 0 E_string E1_note empty 17 7 0 10 -262144
-1 -1;
#X obj 74 98 tgl 15 0 F1 empty F1_GUI 17 7 0 10 -262144 -1 -1 0 1;
#X obj 74 32 bng 15 250 50 0 E_string F1_note empty 17 7 0 10 -262144
-1 -1;
#X obj 146 97 tgl 15 0 F\$1 empty F\$1_GUI 17 7 0 10 -262144 -1 -1
0 1;
#X obj 146 31 bng 15 250 50 0 E_string F\$1_note empty 17 7 0 10 -262144
-1 -1;
#X obj 215 95 tgl 15 0 G1 empty G1_GUI 17 7 0 10 -262144 -1 -1 0 1
;
#X obj 215 29 bng 15 250 50 0 E_string G1_note empty 17 7 0 10 -262144
-1 -1;
#X obj 284 94 tgl 15 0 G\$1 empty G\$1_GUI 17 7 0 10 -262144 -1 -1
0 1;
#X obj 284 28 bng 15 250 50 0 E_string G\$1_note empty 17 7 0 10 -262144
-1 -1;
#X msg 7 132 41.2;
#X msg 74 130 43.7;
#X msg 145 128 46.2;
#X msg 216 125 49;
#X msg 282 130 51.9;
#X floatatom 179 195 5 0 0 0 - amp -, f 5;
#X floatatom 516 140 5 0 0 0 - tempo -, f 5;
#X obj 469 126 bng 15 250 50 0 empty tempoBang empty 17 7 0 10 -262144
-1 -1;
#X obj 470 149 6000;
#X obj 475 174 /;
#X obj 476 197 * 10;
#X obj 430 242 del;
#X obj 427 273 0 0;
#X floatatom 204 253 5 0 0 0 - phasorToggle -, f 5;
#X obj 139 282 *~;
#X obj 100 239 *~;
#X floatatom 578 63 5 0 0 0 - phasorToggle -, f 5;
#X obj 578 84 == 0;
#X obj 572 127 *;
#X floatatom 572 151 5 0 0 0 - - natural_note, f 5;
#X obj 392 61 28;
#X obj 424 59 29;
#X obj 459 56 30;
#X obj 493 54 31;
#X obj 533 51 32;
#X obj 80 64 del;
#X obj 13 65 del;
#X floatatom 182 7 5 0 0 0 - tempoValue -, f 5;
#X obj 152 63 del;
#X obj 221 61 del;
#X obj 290 60 del;
#X obj 66 186 phasor~;
#X connect 0 0 4 0;
#X connect 0 0 5 0;
#X connect 0 0 29 0;
#X connect 1 0 3 1;
#X connect 1 0 3 0;
#X connect 2 0 1 1;
#X connect 4 0 2 0;
#X connect 5 0 6 0;
#X connect 6 0 2 0;
#X connect 8 0 18 0;
#X connect 9 0 8 0;
#X connect 9 0 38 0;
#X connect 9 0 44 0;
#X connect 10 0 19 0;
#X connect 11 0 10 0;
#X connect 11 0 39 0;
#X connect 11 0 43 0;
#X connect 12 0 20 0;
#X connect 13 0 12 0;
#X connect 13 0 40 0;
#X connect 13 0 46 0;
#X connect 14 0 21 0;
#X connect 15 0 14 0;
#X connect 15 0 41 0;
#X connect 15 0 47 0;
#X connect 16 0 22 0;
#X connect 17 0 16 0;
#X connect 17 0 42 0;
#X connect 17 0 48 0;
#X connect 18 0 49 0;
#X connect 19 0 49 0;
#X connect 20 0 49 0;
#X connect 21 0 49 0;
#X connect 22 0 49 0;
#X connect 23 0 33 1;
#X connect 24 0 27 1;
#X connect 25 0 26 0;
#X connect 26 0 27 0;
#X connect 27 0 28 0;
#X connect 28 0 29 1;
#X connect 29 0 30 0;
#X connect 30 0 2 0;
#X connect 31 0 32 1;
#X connect 32 0 1 0;
#X connect 33 0 32 0;
#X connect 34 0 35 0;
#X connect 35 0 36 1;
#X connect 36 0 37 0;
#X connect 38 0 36 0;
#X connect 39 0 36 0;
#X connect 40 0 36 0;
#X connect 41 0 36 0;
#X connect 42 0 36 0;
#X connect 43 0 10 0;
#X connect 44 0 8 0;
#X connect 45 0 48 1;
#X connect 45 0 47 1;
#X connect 45 0 46 1;
#X connect 45 0 43 1;
#X connect 45 0 44 1;
#X connect 46 0 12 0;
#X connect 47 0 14 0;
#X connect 48 0 16 0;
#X connect 49 0 33 0;
#X restore 89 468 pd E_String;
#N canvas 953 50 958 988 keyboard 0;
#X obj 73 274 key;
#X floatatom 98 295 5 0 0 0 - - -, f 5;
#X obj 78 362 bng 15 250 50 0 D2_note empty a 17 7 0 10 -262144 -1
-1;
#X obj 399 280 key;
#X floatatom 435 306 5 0 0 0 - - -, f 5;
#X obj 388 357 bng 15 250 50 0 F2_note empty f 17 7 0 10 -262144 -1
-1;
#X obj 163 288 key;
#X floatatom 211 319 5 0 0 0 - - -, f 5;
#X obj 159 352 bng 15 250 50 0 D\$2_note empty s 17 7 0 10 -262144
-1 -1;
#X obj 290 284 key;
#X floatatom 326 306 5 0 0 0 - - -, f 5;
#X obj 284 360 bng 15 250 50 0 E2_note empty d 17 7 0 10 -262144 -1
-1;
#X obj 67 33 key;
#X floatatom 102 47 5 0 0 0 - - -, f 5;
#X obj 64 106 bng 15 250 50 0 E1_note empty 1 17 7 0 10 -262144 -1
-1;
#X obj 197 24 key;
#X floatatom 241 37 5 0 0 0 - - -, f 5;
#X obj 202 89 bng 15 250 50 0 F1_note empty 2 17 7 0 10 -262144 -1
-1;
#X obj 348 29 key;
#X floatatom 392 52 5 0 0 0 - - -, f 5;
#X obj 337 104 bng 15 250 50 0 F\$1_note empty 3 17 7 0 10 -262144
-1 -1;
#X obj 161 322 sel 115;
#X obj 280 329 sel 100;
#X obj 385 322 sel 102;
#X obj 68 330 sel 97;
#X obj 56 72 sel 49;
#X obj 196 57 sel 50;
#X obj 339 72 sel 51;
#X obj 609 29 key;
#X floatatom 652 54 5 0 0 0 - - -, f 5;
#X obj 615 105 bng 15 250 50 0 G\$1_note empty 5 17 7 0 10 -262144
-1 -1;
#X obj 74 143 key;
#X floatatom 99 164 5 0 0 0 - - -, f 5;
#X obj 79 231 bng 15 250 50 0 A1_note empty q 17 7 0 10 -262144 -1
-1;
#X obj 400 149 key;
#X floatatom 436 175 5 0 0 0 - - -, f 5;
#X obj 389 226 bng 15 250 50 0 C2_note empty r 17 7 0 10 -262144 -1
-1;
#X obj 164 157 key;
#X floatatom 210 169 5 0 0 0 - - -, f 5;
#X obj 160 221 bng 15 250 50 0 A\$1_note empty w 17 7 0 10 -262144
-1 -1;
#X obj 291 153 key;
#X floatatom 327 175 5 0 0 0 - - -, f 5;
#X obj 285 229 bng 15 250 50 0 B2_note empty e 17 7 0 10 -262144 -1
-1;
#X obj 69 199 sel 113;
#X obj 162 191 sel 119;
#X obj 281 198 sel 101;
#X obj 386 191 sel 114;
#X obj 63 420 key;
#X floatatom 98 434 5 0 0 0 - - -, f 5;
#X obj 60 493 bng 15 250 50 0 G2_note empty z 17 7 0 10 -262144 -1
-1;
#X obj 193 411 key;
#X floatatom 237 424 5 0 0 0 - - -, f 5;
#X obj 198 476 bng 15 250 50 0 G\$2_note empty x 17 7 0 10 -262144
-1 -1;
#X obj 344 416 key;
#X floatatom 388 439 5 0 0 0 - - -, f 5;
#X obj 333 491 bng 15 250 50 0 A2_note empty c 17 7 0 10 -262144 -1
-1;
#X obj 462 412 key;
#X floatatom 506 435 5 0 0 0 - - -, f 5;
#X obj 451 487 bng 15 250 50 0 A\$2_note empty v 17 7 0 10 -262144
-1 -1;
#X obj 52 459 sel 122;
#X obj 192 444 sel 120;
#X obj 335 459 sel 99;
#X obj 457 447 sel 118;
#X obj 560 265 key;
#X floatatom 604 288 5 0 0 0 - - -, f 5;
#X obj 549 340 bng 15 250 50 0 F\$2_note empty g 17 7 0 10 -262144
-1 -1;
#X obj 521 144 key;
#X floatatom 565 167 5 0 0 0 - - -, f 5;
#X obj 510 219 bng 15 250 50 0 C\$2_note empty t 17 7 0 10 -262144
-1 -1;
#X obj 584 420 key;
#X floatatom 628 443 5 0 0 0 - - -, f 5;
#X obj 573 495 bng 15 250 50 0 B3_note empty b 17 7 0 10 -262144 -1
-1;
#X obj 487 23 key;
#X floatatom 531 46 5 0 0 0 - - -, f 5;
#X obj 473 101 bng 15 250 50 0 G1_note empty 4 17 7 0 10 -262144 -1
-1;
#X obj 481 61 sel 52;
#X obj 610 69 sel 53;
#X obj 516 179 sel 116;
#X obj 555 300 sel 103;
#X obj 579 454 sel 98;
#X connect 0 0 1 0;
#X connect 0 0 24 0;
#X connect 3 0 4 0;
#X connect 3 0 23 0;
#X connect 6 0 7 0;
#X connect 6 0 21 0;
#X connect 9 0 10 0;
#X connect 9 0 22 0;
#X connect 12 0 13 0;
#X connect 12 0 25 0;
#X connect 15 0 16 0;
#X connect 15 0 26 0;
#X connect 18 0 19 0;
#X connect 18 0 27 0;
#X connect 21 0 8 0;
#X connect 22 0 11 0;
#X connect 23 0 5 0;
#X connect 24 0 2 0;
#X connect 25 0 14 0;
#X connect 26 0 17 0;
#X connect 27 0 20 0;
#X connect 28 0 29 0;
#X connect 28 0 76 0;
#X connect 31 0 32 0;
#X connect 31 0 43 0;
#X connect 34 0 35 0;
#X connect 34 0 46 0;
#X connect 37 0 38 0;
#X connect 37 0 44 0;
#X connect 40 0 41 0;
#X connect 40 0 45 0;
#X connect 43 0 33 0;
#X connect 44 0 39 0;
#X connect 45 0 42 0;
#X connect 46 0 36 0;
#X connect 47 0 48 0;
#X connect 47 0 59 0;
#X connect 50 0 51 0;
#X connect 50 0 60 0;
#X connect 53 0 54 0;
#X connect 53 0 61 0;
#X connect 56 0 57 0;
#X connect 56 0 62 0;
#X connect 59 0 49 0;
#X connect 60 0 52 0;
#X connect 61 0 55 0;
#X connect 62 0 58 0;
#X connect 63 0 64 0;
#X connect 63 0 78 0;
#X connect 66 0 67 0;
#X connect 66 0 77 0;
#X connect 69 0 70 0;
#X connect 69 0 79 0;
#X connect 72 0 73 0;
#X connect 72 0 75 0;
#X connect 75 0 74 0;
#X connect 76 0 30 0;
#X connect 77 0 68 0;
#X connect 78 0 65 0;
#X connect 79 0 71 0;
#X restore 383 436 pd keyboard;
#X obj 131 124 tgl 30 0 empty chord1 Chord_1 35 7 0 10 -262144 -1 -1
0 1;
#X obj 234 179 tgl 30 0 empty chord4 Chord_4 35 7 0 10 -262144 -1 -1
0 1;
#X obj 233 124 tgl 30 0 empty chord2 Chord_2 35 7 0 10 -262144 -1 -1
0 1;
#X obj 47 333 tgl 30 0 phasorToggle empty Phasor 30 7 0 10 -262144
-1 -1 0 1;
#N canvas 307 174 623 699 naturalSound 0;
#X obj 17 91 vsl 15 128 0.5 0.989 0 0 \$0-muting empty empty 0 -8 0
10 -262144 -1 -1 12700 1;
#X floatatom 17 232 5 0 0 0 - - -, f 5;
#X text -3 243 mute strings;
#X obj 88 650 dac~;
#X floatatom 57 221 5 0 0 0 - - #0-pick-angle, f 5;
#X obj 105 518 *~;
#X obj 17 48 loadbang;
#X msg 17 70 0.989;
#X obj 260 162 hsl 128 15 2 50 0 0 \$0-pick-location \$0-pick-location1
empty -2 -6 0 10 -262144 -1 -1 794 1;
#X text 285 128 pick location;
#X text 245 145 middle;
#X text 371 146 bridge;
#X obj 257 100 loadbang;
#N canvas 0 50 1016 635 delay-writer 0;
#X obj 306 468 outlet~;
#X obj 580 -88 sin;
#X obj 605 -87 cos;
#N canvas 0 50 1001 656 body-resonance 0;
#X obj 429 1 inlet~;
#X obj 423 299 outlet~;
#X obj 349 114 bp~ 325 70;
#X obj 484 114 bp~ 437 75;
#X obj 551 114 bp~ 490 48;
#X obj 428 31 hip~ 2;
#X obj 764 114 bp~ 881 39;
#X obj 692 114 bp~ 771 58;
#X obj 619 114 bp~ 542 80;
#X obj 244 140 *~ 0.8;
#X obj 294 141 *~ 0.925;
#X obj 415 141 *~ 0.95;
#X obj 482 142 *~ 0.85;
#X obj 541 143 *~ 0.72;
#X obj 662 142 *~ 0.42;
#X obj 732 143 *~ 0.3;
#X obj 351 140 *~ 0.5;
#X obj 605 142 *~ 0.45;
#X obj 108 132 *~ 0.2;
#X obj 19 113 bp~ 35 10;
#X obj 37 134 *~ 0.5;
#X obj 416 114 bp~ 377 72;
#X obj 85 113 bp~ 90 10;
#X obj 151 114 bp~ 150 40;
#X obj 283 114 bp~ 260 55;
#X obj 217 114 bp~ 195 50;
#X obj 165 134 *~ 0.5;
#X obj 423 244 *~ 4;
#X connect 0 0 5 0;
#X connect 2 0 16 0;
#X connect 3 0 12 0;
#X connect 4 0 13 0;
#X connect 5 0 2 0;
#X connect 5 0 3 0;
#X connect 5 0 4 0;
#X connect 5 0 6 0;
#X connect 5 0 7 0;
#X connect 5 0 8 0;
#X connect 5 0 19 0;
#X connect 5 0 21 0;
#X connect 5 0 22 0;
#X connect 5 0 23 0;
#X connect 5 0 24 0;
#X connect 5 0 25 0;
#X connect 6 0 15 0;
#X connect 7 0 14 0;
#X connect 8 0 17 0;
#X connect 9 0 27 0;
#X connect 10 0 27 0;
#X connect 11 0 27 0;
#X connect 12 0 27 0;
#X connect 13 0 27 0;
#X connect 14 0 27 0;
#X connect 15 0 27 0;
#X connect 16 0 27 0;
#X connect 17 0 27 0;
#X connect 18 0 27 0;
#X connect 19 0 20 0;
#X connect 20 0 27 0;
#X connect 21 0 11 0;
#X connect 22 0 18 0;
#X connect 23 0 26 0;
#X connect 24 0 10 0;
#X connect 25 0 9 0;
#X connect 26 0 27 0;
#X connect 27 0 1 0;
#X restore 460 339 pd body-resonance;
#N canvas 0 50 1016 656 pick-position 0;
#X obj 81 21 inlet~;
#X obj 80 267 outlet~;
#X obj 257 21 inlet position;
#X obj 81 216 -~;
#X obj 15 21 inlet bang;
#X obj -4 226 tgl 15 0 empty empty empty 0 -6 0 10 -262144 -1 -1 0
1;
#X msg -9 181 1;
#X msg 22 181 0;
#X floatatom 31 135 5 0 0 0 - - -, f 5;
#X obj 31 153 sel 0;
#X obj 1 64 t b b;
#X msg 31 97 1 0 \, 0 40;
#X obj 31 116 line 1 40;
#X obj -4 247 switch~ 16;
#X obj 141 98 delwrite~ \$0-low-e-pick-position 100;
#X obj 141 154 delread~ \$0-low-e-pick-position 3;
#X connect 0 0 3 0;
#X connect 0 0 14 0;
#X connect 2 0 15 0;
#X connect 3 0 1 0;
#X connect 4 0 10 0;
#X connect 5 0 13 0;
#X connect 6 0 5 0;
#X connect 7 0 5 0;
#X connect 8 0 9 0;
#X connect 9 0 7 0;
#X connect 10 0 11 0;
#X connect 10 1 6 0;
#X connect 11 0 12 0;
#X connect 12 0 8 0;
#X connect 15 0 3 1;
#X restore 357 151 pd pick-position;
#X floatatom 472 125 5 0 0 0 - - -, f 5;
#X text 503 123 in ms;
#X obj 605 -62 abs;
#X obj 580 -62 abs;
#X text 629 -84 absolute value to preserve magnitude of components
but avoid cancellation;
#N canvas 0 50 995 656 low-e-string 0;
#X text 245 266 vertical plane;
#X obj 367 319 *~;
#X obj 459 321 *~;
#X obj 587 409 clip~ -1 1;
#X obj 587 352 *~;
#X obj 227 345 *~;
#X obj 614 321 *~;
#X obj 250 309 *~;
#X text 642 318 horizontal-horizontal transfer;
#X text 87 307 vertical-vertical transfer;
#X text 467 349 horizontal-vertical;
#X text 249 347 vertical-horizontal;
#X obj 167 595 *~ 0.1;
#X obj 665 438 clip~ -1 1;
#X obj 429 607 clip~ -1 1;
#X obj 140 427 clip~ -1 1;
#X obj 366 620 *~ 100;
#X obj 236 618 *~ 0.3;
#X obj 297 618 *~ 0.3;
#X obj 424 452 *~ 0.01425;
#X obj 103 181 inlet~ pluck;
#X obj 870 202 inlet~ bodyres;
#X obj 361 716 outlet~;
#X floatatom 680 221 5 0 0 0 - - -, f 5;
#X floatatom 754 225 5 0 0 0 - - -, f 5;
#X obj 427 716 outlet~ body-res;
#X obj 14 521 tgl 15 0 empty empty empty 0 -6 0 10 -262144 -1 -1 1
1;
#X msg 9 476 1;
#X msg 40 476 0;
#X floatatom 40 439 5 0 0 0 - - -, f 5;
#X obj 40 457 sel 0;
#X obj 41 419 line 1 60000;
#X msg 41 400 1 0 \, 0 60000;
#X obj 14 547 switch~ 1;
#X obj 35 181 inlet bang;
#X obj 39 223 t b b;
#X text 857 320 horizontal plane;
#X obj 638 201 r \$0-sin-magnitude;
#X obj 755 202 r \$0-cos-magnitude;
#X obj 140 452 delwrite~ \$0-low-e-string-del-xz 50;
#X obj 665 460 delwrite~ \$0-low-e-string-del-xy 50;
#X obj 423 101 r \$0-offset;
#X obj 587 390 hip~ 2;
#X obj 666 417 hip~ 2;
#X obj 429 583 hip~ 2;
#X obj 378 583 hip~ 2;
#X obj 140 408 hip~ 2;
#X obj 167 617 lop~ 2000;
#X obj 229 211 lop~ 1500;
#X obj 265 402 lop~ 3000;
#X obj 587 371 lop~ 2625;
#X obj 666 397 lop~ 3750;
#X obj 140 388 lop~ 3375;
#X obj 237 595 lop~ 2250;
#X obj 298 595 lop~ 2250;
#X obj 226 251 *~ 0.59;
#X obj 311 243 *~ 0.42;
#X obj 580 231 *~ 0.393;
#X obj 672 237 *~ 0.6;
#X obj 489 155 inlet~ muting;
#X obj 422 235 /~;
#X obj 374 235 *~;
#X obj 191 284 vd~ \$0-low-e-string-del-xz 24.2698;
#X obj 586 266 vd~ \$0-low-e-string-del-xy 24.2698;
#X obj 242 185 inlet~ delaylength;
#X connect 1 0 7 0;
#X connect 1 0 5 0;
#X connect 2 0 4 0;
#X connect 2 0 6 0;
#X connect 3 0 39 0;
#X connect 4 0 50 0;
#X connect 5 0 19 0;
#X connect 5 0 49 0;
#X connect 6 0 51 0;
#X connect 7 0 52 0;
#X connect 12 0 47 0;
#X connect 13 0 40 0;
#X connect 13 0 54 0;
#X connect 14 0 40 0;
#X connect 15 0 39 0;
#X connect 15 0 53 0;
#X connect 16 0 22 0;
#X connect 17 0 22 0;
#X connect 18 0 22 0;
#X connect 19 0 25 0;
#X connect 20 0 12 0;
#X connect 20 0 48 0;
#X connect 21 0 44 0;
#X connect 26 0 33 0;
#X connect 27 0 26 0;
#X connect 28 0 26 0;
#X connect 29 0 30 0;
#X connect 30 0 28 0;
#X connect 31 0 29 0;
#X connect 32 0 31 0;
#X connect 34 0 35 0;
#X connect 35 0 32 0;
#X connect 35 1 27 0;
#X connect 37 0 1 1;
#X connect 37 0 23 0;
#X connect 38 0 2 1;
#X connect 38 0 24 0;
#X connect 41 0 60 1;
#X connect 41 0 61 1;
#X connect 42 0 3 0;
#X connect 43 0 13 0;
#X connect 44 0 14 0;
#X connect 44 0 16 0;
#X connect 45 0 14 0;
#X connect 46 0 15 0;
#X connect 46 0 19 0;
#X connect 47 0 22 0;
#X connect 48 0 1 0;
#X connect 48 0 2 0;
#X connect 49 0 45 0;
#X connect 50 0 42 0;
#X connect 51 0 43 0;
#X connect 52 0 46 0;
#X connect 53 0 17 0;
#X connect 54 0 18 0;
#X connect 55 0 7 1;
#X connect 56 0 5 1;
#X connect 57 0 4 1;
#X connect 58 0 6 1;
#X connect 59 0 55 0;
#X connect 59 0 56 0;
#X connect 59 0 57 0;
#X connect 59 0 58 0;
#X connect 60 0 63 0;
#X connect 61 0 62 0;
#X connect 62 0 5 0;
#X connect 62 0 7 0;
#X connect 63 0 4 0;
#X connect 63 0 6 0;
#X connect 64 0 60 0;
#X connect 64 0 61 0;
#X restore 356 220 pd low-e-string;
#N canvas 0 50 1016 656 gopluckyourself 0;
#X obj 62 57 noise~;
#X obj 258 -81 inlet bang;
#X obj 129 412 outlet~;
#X obj 241 148 tgl 15 0 empty empty empty 0 -6 0 10 -262144 -1 -1 0
1;
#X msg 236 103 1;
#X msg 267 103 0;
#X floatatom 326 81 5 0 0 0 - - -, f 5;
#X obj 326 99 sel 0;
#X obj 143 57 vline~;
#X obj 128 312 *~;
#X obj 15 126 clip~ -1 1;
#X obj 143 88 *~;
#X obj 14 83 *~ 5;
#X obj 50 248 *~ 0.1;
#X obj 241 168 switch~ 64;
#X obj 116 229 vcf~ 15;
#X obj 148 264 *~ 6;
#X msg 326 43 1 0 \, 0 50;
#X obj 326 62 line 1 50;
#X obj 129 350 *~ 1;
#X obj 128 331 lop~ 2000;
#X msg 141 37 1 2 0 \, 0 9 2;
#X obj 240 -54 f 0;
#X obj 286 -53 + 1;
#X obj 239 -34 mod 2;
#X obj 214 -7 t b b f b;
#X obj 211 230 sel 0 1;
#X msg 200 265 3000;
#X msg 240 265 1667;
#X obj 159 148 *~ 1000;
#X obj 160 172 +~ 20;
#X connect 0 0 12 0;
#X connect 1 0 22 0;
#X connect 3 0 14 0;
#X connect 4 0 3 0;
#X connect 5 0 3 0;
#X connect 6 0 7 0;
#X connect 7 0 5 0;
#X connect 8 0 11 0;
#X connect 8 0 11 1;
#X connect 9 0 20 0;
#X connect 10 0 13 0;
#X connect 10 0 15 0;
#X connect 11 0 16 0;
#X connect 11 0 29 0;
#X connect 12 0 10 0;
#X connect 13 0 9 0;
#X connect 15 0 9 0;
#X connect 16 0 9 1;
#X connect 17 0 18 0;
#X connect 18 0 6 0;
#X connect 19 0 2 0;
#X connect 20 0 19 0;
#X connect 21 0 8 0;
#X connect 22 0 23 0;
#X connect 22 0 24 0;
#X connect 23 0 22 1;
#X connect 24 0 25 0;
#X connect 25 0 17 0;
#X connect 25 1 21 0;
#X connect 25 2 26 0;
#X connect 25 3 4 0;
#X connect 26 0 27 0;
#X connect 26 1 28 0;
#X connect 27 0 20 1;
#X connect 28 0 20 1;
#X connect 29 0 30 0;
#X connect 30 0 15 1;
#X restore 357 124 pd gopluckyourself;
#X obj 160 186 tgl 15 0 empty empty empty 0 -6 0 10 -262144 -1 -1 1
1;
#X msg 155 141 1;
#X msg 182 141 0;
#X floatatom 182 104 5 0 0 0 - - -, f 5;
#X obj 182 122 sel 0;
#X obj 156 212 switch~ 1;
#N canvas 0 50 995 656 convert-and-trigger 0;
#N canvas 0 50 450 300 midi-to-delay-length 0;
#X obj 33 51 mtof~;
#X obj 33 73 expr~ 1000/$v1;
#X obj 33 94 outlet~;
#X obj 33 31 inlet~;
#X connect 0 0 1 0;
#X connect 1 0 2 0;
#X connect 3 0 0 0;
#X restore 153 270 pd midi-to-delay-length;
#X obj 45 16 inlet;
#X obj 61 672 outlet bang;
#X obj 45 66 t b b f;
#X obj 133 672 outlet pluck-bang;
#X obj 153 243 +~;
#X obj 241 672 outlet~ delay-length;
#X obj 167 192 line~;
#X msg 167 166 \$1 5;
#X text 176 243 this is a signal in case you want to make a bend mechanism
;
#X connect 0 0 6 0;
#X connect 1 0 3 0;
#X connect 3 0 4 0;
#X connect 3 1 2 0;
#X connect 3 2 8 0;
#X connect 5 0 0 0;
#X connect 7 0 5 1;
#X connect 8 0 7 0;
#X restore 284 87 pd convert-and-trigger;
#X obj 580 -120 r \$0-pick-angle;
#N canvas 0 50 1016 640 pick-position-delay-calculator 0;
#N canvas 0 50 450 300 midi-to-delay-length 0;
#X obj 33 51 mtof;
#X obj 33 71 expr 1000/$f1;
#X obj 33 31 inlet;
#X obj 33 92 outlet;
#X connect 0 0 1 0;
#X connect 1 0 3 0;
#X connect 2 0 0 0;
#X restore 141 -99 pd midi-to-delay-length;
#X obj 141 -154 loadbang;
#X obj 141 -23 / 4;
#X floatatom 204 -218 5 0 0 0 - - -, f 5;
#X obj 201 -190 t b f;
#X obj 188 -257 r \$0-pick-location;
#X obj 96 104 s \$0-low-e-pick-position-delay;
#X msg 141 -129 28;
#X connect 0 0 2 0;
#X connect 1 0 7 0;
#X connect 2 0 6 0;
#X connect 3 0 4 0;
#X connect 4 0 2 0;
#X connect 4 1 2 1;
#X connect 5 0 3 0;
#X connect 7 0 0 0;
#X restore 349 -119 pd pick-position-delay-calculator;
#X obj 472 87 r \$0-low-e-pick-position-delay;
#X obj 460 359 delwrite~ \$0-from-body 0;
#X obj 433 196 delread~ \$0-from-body 0;
#X obj 559 -32 s \$0-sin-magnitude;
#X obj 675 -32 s \$0-cos-magnitude;
#X obj 265 -6 t b f b;
#X floatatom 265 -93 5 0 0 0 - - -, f 5;
#X obj 265 -119 inlet note;
#X obj 461 314 *~ 0.75;
#X msg 182 65 1 0 \, 0 60000;
#X obj 183 84 line 1 60000;
#X obj 865 -34 line~;
#X obj 865 -120 r \$0-muting;
#X connect 1 0 8 0;
#X connect 2 0 7 0;
#X connect 3 0 22 0;
#X connect 4 0 10 1;
#X connect 5 0 4 2;
#X connect 7 0 25 0;
#X connect 8 0 24 0;
#X connect 10 0 0 0;
#X connect 10 1 29 0;
#X connect 11 0 4 1;
#X connect 12 0 17 0;
#X connect 13 0 12 0;
#X connect 14 0 12 0;
#X connect 15 0 16 0;
#X connect 16 0 14 0;
#X connect 18 0 10 0;
#X connect 18 1 11 0;
#X connect 18 1 4 0;
#X connect 18 2 10 2;
#X connect 19 0 2 0;
#X connect 19 0 1 0;
#X connect 21 0 5 0;
#X connect 23 0 10 4;
#X connect 26 0 30 0;
#X connect 26 1 18 0;
#X connect 26 2 13 0;
#X connect 27 0 26 0;
#X connect 28 0 27 0;
#X connect 29 0 3 0;
#X connect 30 0 31 0;
#X connect 31 0 15 0;
#X connect 32 0 10 3;
#X connect 33 0 32 0;
#X restore 30 330 pd delay-writer;
#X obj 46 106 loadbang;
#X text 98 214 radians;
#X obj 172 94 vsl 15 128 1 1.004 0 0 \$0-offset \$0-offset1 empty 0
-8 0 10 -262144 -1 -1 0 1;
#X floatatom 172 228 8 0 0 0 - - -, f 8;
#X obj 125 54 loadbang;
#X msg 139 73 1;
#X text 108 29 offset two axes;
#X text 107 38 (like a kantele);
#X floatatom 30 299 5 0 0 0 - natural_note -, f 5;
#X text 33 266 note;
#X floatatom 263 183 5 0 0 0 - - -, f 5;
#X floatatom 78 354 5 0 0 0 - - -, f 5;
#X floatatom 151 359 5 0 0 0 - - -, f 5;
#X obj 31 475 *~;
#X obj 99 475 *~;
#X floatatom 114 450 5 0 0 0 - - -, f 5;
#X floatatom 46 450 5 0 0 0 - - -, f 5;
#X obj 163 480 *~;
#X floatatom 178 451 5 0 0 0 - - -, f 5;
#X msg 257 120 5;
#X text 152 -22 WAVEGUIDE BASS;
#X obj 46 410 loadbang;
#X msg 46 430 1;
#X obj 114 410 loadbang;
#X obj 178 410 loadbang;
#X msg 178 430 0.1;
#X obj 100 379 hip~ 2000;
#X obj 30 380 lop~ 150;
#X msg 114 430 0.075;
#X obj 95 619 clip~ -1 1;
#X text 167 379 some eq;
#X text 185 480 (dry);
#X obj 95 589 *~;
#X floatatom 146 534 5 0 0 0 - phasorToggle -, f 5;
#X obj 140 558 == 0;
#X msg 51 196 1;
#X floatatom 271 477 5 0 0 0 - amp -, f 5;
#X obj 234 509 * 4;
#X connect 0 0 1 0;
#X connect 5 0 46 0;
#X connect 6 0 7 0;
#X connect 7 0 0 0;
#X connect 8 0 24 0;
#X connect 12 0 33 0;
#X connect 13 0 41 0;
#X connect 13 0 31 0;
#X connect 13 0 40 0;
#X connect 14 0 49 0;
#X connect 16 0 17 0;
#X connect 18 0 19 0;
#X connect 19 0 16 0;
#X connect 22 0 13 0;
#X connect 25 0 41 1;
#X connect 26 0 40 1;
#X connect 27 0 5 0;
#X connect 28 0 5 0;
#X connect 29 0 28 1;
#X connect 30 0 27 1;
#X connect 31 0 5 0;
#X connect 32 0 31 1;
#X connect 33 0 8 0;
#X connect 35 0 36 0;
#X connect 36 0 30 0;
#X connect 37 0 42 0;
#X connect 38 0 39 0;
#X connect 39 0 32 0;
#X connect 40 0 28 0;
#X connect 41 0 27 0;
#X connect 42 0 29 0;
#X connect 43 0 3 0;
#X connect 43 0 3 1;
#X connect 46 0 43 0;
#X connect 47 0 48 0;
#X connect 48 0 46 1;
#X connect 49 0 4 0;
#X connect 50 0 51 0;
#X connect 51 0 5 1;
#X restore 124 435 pd naturalSound;
#X obj 168 7 loadbang;
#X obj 10 77 loadbang;
#X obj 45 290 loadbang;
#X obj 65 314 bng 15 250 50 0 empty empty empty 17 7 0 10 -262144 -1
-1;
#X obj 131 179 tgl 30 0 empty chord3 Chord_3 35 7 0 10 -262144 -1 -1
0 1;
#X connect 0 0 1 0;
#X connect 2 0 3 0;
#X connect 2 0 8 0;
#X connect 57 0 2 0;
#X connect 58 0 0 0;
#X connect 59 0 55 0;
#X connect 59 0 60 0;
#X connect 60 0 55 0;
