#N canvas 0 22 450 300 10;
#X obj 357 158 bng 15 250 50 0 empty A_string bang_from_notes 17 7
0 10 -262144 -1 -1;
#X obj 215 321 *~;
#X obj 306 284 line~;
#X obj 215 381 dac~;
#X msg 283 213 1 10;
#X obj 363 213 del 10;
#X msg 363 247 0 2990;
#X obj 7 99 tgl 15 0 A1 empty A1_GUI 17 7 0 10 -262144 -1 -1 0 1;
#X obj 7 33 bng 15 250 50 0 A_string A1_note empty 17 7 0 10 -262144
-1 -1;
#X obj 75 97 tgl 15 0 A\$1 empty A\$1_GUI 17 7 0 10 -262144 -1 -1 0
1;
#X obj 75 31 bng 15 250 50 0 A_string A\$1_note empty 17 7 0 10 -262144
-1 -1;
#X obj 146 97 tgl 15 0 B1 empty B1_GUI 17 7 0 10 -262144 -1 -1 0 1
;
#X obj 146 31 bng 15 250 50 0 A_string B2_note empty 17 7 0 10 -262144
-1 -1;
#X obj 215 96 tgl 15 0 C2 empty C2_GUI 17 7 0 10 -262144 -1 -1 0 1
;
#X obj 215 30 bng 15 250 50 0 A_string C2_note empty 17 7 0 10 -262144
-1 -1;
#X obj 281 96 tgl 15 0 C\$2 empty C\$2_GUI 17 7 0 10 -262144 -1 -1
0 1;
#X obj 281 30 bng 15 250 50 0 A_string C\$2_note empty 17 7 0 10 -262144
-1 -1;
#X text 391 14 A String;
#X floatatom 512 120 5 0 0 0 - tempo -, f 5;
#X obj 474 106 bng 15 250 50 0 empty tempoBang empty 17 7 0 10 -262144
-1 -1;
#X obj 475 129 6000;
#X obj 480 154 /;
#X obj 481 177 * 10;
#X obj 435 222 del;
#X obj 432 253 0 0;
#X msg 10 133 55;
#X msg 75 131 58.27;
#X msg 146 129 61.74;
#X msg 215 127 65.41;
#X msg 279 126 69.3;
#X floatatom 578 63 5 0 0 0 - phasorToggle -, f 5;
#X obj 578 84 == 0;
#X obj 565 113 *;
#X floatatom 565 137 5 0 0 0 - - natural_note, f 5;
#X obj 392 61 33;
#X obj 424 59 34;
#X obj 459 56 35;
#X obj 493 54 36;
#X obj 533 51 37;
#X floatatom 187 200 5 0 0 0 - amp -, f 5;
#X floatatom 212 258 5 0 0 0 - phasorToggle -, f 5;
#X obj 147 287 *~;
#X obj 108 244 *~;
#X floatatom 166 9 5 0 0 0 - tempoValue -, f 5;
#X obj 13 65 del;
#X obj 81 63 del;
#X obj 152 63 del;
#X obj 221 62 del;
#X obj 287 62 del;
#X obj 66 186 phasor~;
#X connect 0 0 4 0;
#X connect 0 0 5 0;
#X connect 0 0 23 0;
#X connect 1 0 3 1;
#X connect 1 0 3 0;
#X connect 2 0 1 1;
#X connect 4 0 2 0;
#X connect 5 0 6 0;
#X connect 6 0 2 0;
#X connect 7 0 25 0;
#X connect 8 0 7 0;
#X connect 8 0 34 0;
#X connect 8 0 44 0;
#X connect 9 0 26 0;
#X connect 10 0 9 0;
#X connect 10 0 35 0;
#X connect 10 0 45 0;
#X connect 11 0 27 0;
#X connect 12 0 11 0;
#X connect 12 0 36 0;
#X connect 12 0 46 0;
#X connect 13 0 28 0;
#X connect 14 0 13 0;
#X connect 14 0 37 0;
#X connect 14 0 47 0;
#X connect 15 0 29 0;
#X connect 16 0 15 0;
#X connect 16 0 38 0;
#X connect 16 0 48 0;
#X connect 18 0 21 1;
#X connect 19 0 20 0;
#X connect 20 0 21 0;
#X connect 21 0 22 0;
#X connect 22 0 23 1;
#X connect 23 0 24 0;
#X connect 24 0 2 0;
#X connect 25 0 49 0;
#X connect 26 0 49 0;
#X connect 27 0 49 0;
#X connect 28 0 49 0;
#X connect 29 0 49 0;
#X connect 30 0 31 0;
#X connect 31 0 32 1;
#X connect 32 0 33 0;
#X connect 34 0 32 0;
#X connect 35 0 32 0;
#X connect 36 0 32 0;
#X connect 37 0 32 0;
#X connect 38 0 32 0;
#X connect 39 0 42 1;
#X connect 40 0 41 1;
#X connect 41 0 1 0;
#X connect 42 0 41 0;
#X connect 43 0 44 1;
#X connect 43 0 45 1;
#X connect 43 0 46 1;
#X connect 43 0 47 1;
#X connect 43 0 48 1;
#X connect 44 0 7 0;
#X connect 45 0 9 0;
#X connect 46 0 11 0;
#X connect 47 0 13 0;
#X connect 48 0 15 0;
#X connect 49 0 42 0;
