#N canvas 0 22 450 300 10;
#X obj 357 161 bng 15 250 50 0 empty D_string bang_from_notes 17 7
0 10 -262144 -1 -1;
#X obj 215 321 *~;
#X obj 316 284 line~;
#X obj 215 381 dac~;
#X msg 293 213 1 10;
#X obj 373 213 del 10;
#X msg 373 247 0 2990;
#X obj 7 99 tgl 15 0 D2 empty D2_GUI 17 7 0 10 -262144 -1 -1 0 1;
#X obj 7 33 bng 15 250 50 0 D_string D2_note empty 17 7 0 10 -262144
-1 -1;
#X obj 75 97 tgl 15 0 D\$2 empty D\$2_GUI 17 7 0 10 -262144 -1 -1 0
1;
#X obj 75 31 bng 15 250 50 0 D_string D\$2_note empty 17 7 0 10 -262144
-1 -1;
#X obj 146 97 tgl 15 0 E2 empty E2_GUI 17 7 0 10 -262144 -1 -1 0 1
;
#X obj 146 31 bng 15 250 50 0 D_string E2_note empty 17 7 0 10 -262144
-1 -1;
#X obj 215 96 tgl 15 0 F2 empty F2_GUI 17 7 0 10 -262144 -1 -1 0 1
;
#X obj 215 30 bng 15 250 50 0 D_string F2_note empty 17 7 0 10 -262144
-1 -1;
#X obj 281 96 tgl 15 0 F\$2 empty F\$2_GUI 17 7 0 10 -262144 -1 -1
0 1;
#X obj 281 30 bng 15 250 50 0 D_string F\$2_note empty 17 7 0 10 -262144
-1 -1;
#X text 391 14 D String;
#X msg 9 137 73.2;
#X msg 74 134 77.8;
#X msg 146 131 82.4;
#X msg 280 132 92.5;
#X floatatom 501 130 5 0 0 0 - tempo -, f 5;
#X obj 463 116 bng 15 250 50 0 empty tempoBang empty 17 7 0 10 -262144
-1 -1;
#X obj 464 139 6000;
#X obj 469 164 /;
#X obj 470 187 * 10;
#X obj 443 219 del;
#X obj 440 250 0 0;
#X msg 213 132 87.31;
#X floatatom 578 63 5 0 0 0 - phasorToggle -, f 5;
#X obj 578 84 == 0;
#X obj 565 113 *;
#X floatatom 565 137 5 0 0 0 - - natural_note, f 5;
#X obj 392 61 38;
#X obj 424 59 39;
#X obj 459 56 40;
#X obj 493 54 41;
#X obj 533 51 42;
#X floatatom 142 226 5 0 0 0 - amp -, f 5;
#X floatatom 214 265 5 0 0 0 - phasorToggle -, f 5;
#X obj 149 294 *~;
#X obj 110 251 *~;
#X floatatom 150 4 5 0 0 0 - tempoValue -, f 5;
#X obj 13 65 del;
#X obj 81 63 del;
#X obj 152 63 del;
#X obj 221 62 del;
#X obj 287 62 del;
#X obj 67 203 phasor~;
#X connect 0 0 4 0;
#X connect 0 0 5 0;
#X connect 0 0 27 0;
#X connect 1 0 3 1;
#X connect 1 0 3 0;
#X connect 2 0 1 1;
#X connect 4 0 2 0;
#X connect 5 0 6 0;
#X connect 6 0 2 0;
#X connect 7 0 18 0;
#X connect 8 0 7 0;
#X connect 8 0 34 0;
#X connect 8 0 44 0;
#X connect 9 0 19 0;
#X connect 10 0 9 0;
#X connect 10 0 35 0;
#X connect 10 0 45 0;
#X connect 11 0 20 0;
#X connect 12 0 11 0;
#X connect 12 0 36 0;
#X connect 12 0 46 0;
#X connect 13 0 29 0;
#X connect 14 0 13 0;
#X connect 14 0 37 0;
#X connect 14 0 47 0;
#X connect 15 0 21 0;
#X connect 16 0 15 0;
#X connect 16 0 38 0;
#X connect 16 0 48 0;
#X connect 18 0 49 0;
#X connect 19 0 49 0;
#X connect 20 0 49 0;
#X connect 21 0 49 0;
#X connect 22 0 25 1;
#X connect 23 0 24 0;
#X connect 24 0 25 0;
#X connect 25 0 26 0;
#X connect 26 0 27 1;
#X connect 27 0 28 0;
#X connect 28 0 2 0;
#X connect 29 0 49 0;
#X connect 30 0 31 0;
#X connect 31 0 32 1;
#X connect 32 0 33 0;
#X connect 34 0 32 0;
#X connect 35 0 32 0;
#X connect 36 0 32 0;
#X connect 37 0 32 0;
#X connect 38 0 32 0;
#X connect 39 0 42 1;
#X connect 40 0 41 1;
#X connect 41 0 1 0;
#X connect 42 0 41 0;
#X connect 43 0 44 1;
#X connect 43 0 45 1;
#X connect 43 0 46 1;
#X connect 43 0 47 1;
#X connect 43 0 48 1;
#X connect 44 0 7 0;
#X connect 45 0 9 0;
#X connect 46 0 11 0;
#X connect 47 0 13 0;
#X connect 48 0 15 0;
#X connect 49 0 42 0;
