#N canvas 0 22 450 300 10;
#X obj 360 180 bng 15 250 50 0 empty E_string bang_from_notes 17 7
0 10 -262144 -1 -1;
#X obj 215 321 *~;
#X obj 308 305 line~;
#X obj 215 381 dac~;
#X msg 285 234 1 10;
#X obj 365 234 del 10;
#X msg 365 268 0 2990;
#X text 391 14 E String;
#X obj 7 99 tgl 15 0 E1 empty E1_GUI 17 7 0 10 -262144 -1 -1 0 1;
#X obj 7 33 bng 15 250 50 0 E_string E1_note empty 17 7 0 10 -262144
-1 -1;
#X obj 74 98 tgl 15 0 F1 empty F1_GUI 17 7 0 10 -262144 -1 -1 0 1;
#X obj 74 32 bng 15 250 50 0 E_string F1_note empty 17 7 0 10 -262144
-1 -1;
#X obj 146 97 tgl 15 0 F\$1 empty F\$1_GUI 17 7 0 10 -262144 -1 -1
0 1;
#X obj 146 31 bng 15 250 50 0 E_string F\$1_note empty 17 7 0 10 -262144
-1 -1;
#X obj 215 95 tgl 15 0 G1 empty G1_GUI 17 7 0 10 -262144 -1 -1 0 1
;
#X obj 215 29 bng 15 250 50 0 E_string G1_note empty 17 7 0 10 -262144
-1 -1;
#X obj 284 94 tgl 15 0 G\$1 empty G\$1_GUI 17 7 0 10 -262144 -1 -1
0 1;
#X obj 284 28 bng 15 250 50 0 E_string G\$1_note empty 17 7 0 10 -262144
-1 -1;
#X msg 7 132 41.2;
#X msg 74 130 43.7;
#X msg 145 128 46.2;
#X msg 216 125 49;
#X msg 282 130 51.9;
#X floatatom 179 195 5 0 0 0 - amp -, f 5;
#X floatatom 516 140 5 0 0 0 - tempo -, f 5;
#X obj 469 126 bng 15 250 50 0 empty tempoBang empty 17 7 0 10 -262144
-1 -1;
#X obj 470 149 6000;
#X obj 475 174 /;
#X obj 476 197 * 10;
#X obj 430 242 del;
#X obj 427 273 0 0;
#X floatatom 204 253 5 0 0 0 - phasorToggle -, f 5;
#X obj 139 282 *~;
#X obj 100 239 *~;
#X floatatom 578 63 5 0 0 0 - phasorToggle -, f 5;
#X obj 578 84 == 0;
#X obj 572 127 *;
#X floatatom 572 151 5 0 0 0 - - natural_note, f 5;
#X obj 392 61 28;
#X obj 424 59 29;
#X obj 459 56 30;
#X obj 493 54 31;
#X obj 533 51 32;
#X obj 80 64 del;
#X obj 13 65 del;
#X floatatom 182 7 5 0 0 0 - tempoValue -, f 5;
#X obj 152 63 del;
#X obj 221 61 del;
#X obj 290 60 del;
#X obj 66 186 phasor~;
#X connect 0 0 4 0;
#X connect 0 0 5 0;
#X connect 0 0 29 0;
#X connect 1 0 3 1;
#X connect 1 0 3 0;
#X connect 2 0 1 1;
#X connect 4 0 2 0;
#X connect 5 0 6 0;
#X connect 6 0 2 0;
#X connect 8 0 18 0;
#X connect 9 0 8 0;
#X connect 9 0 38 0;
#X connect 9 0 44 0;
#X connect 10 0 19 0;
#X connect 11 0 10 0;
#X connect 11 0 39 0;
#X connect 11 0 43 0;
#X connect 12 0 20 0;
#X connect 13 0 12 0;
#X connect 13 0 40 0;
#X connect 13 0 46 0;
#X connect 14 0 21 0;
#X connect 15 0 14 0;
#X connect 15 0 41 0;
#X connect 15 0 47 0;
#X connect 16 0 22 0;
#X connect 17 0 16 0;
#X connect 17 0 42 0;
#X connect 17 0 48 0;
#X connect 18 0 49 0;
#X connect 19 0 49 0;
#X connect 20 0 49 0;
#X connect 21 0 49 0;
#X connect 22 0 49 0;
#X connect 23 0 33 1;
#X connect 24 0 27 1;
#X connect 25 0 26 0;
#X connect 26 0 27 0;
#X connect 27 0 28 0;
#X connect 28 0 29 1;
#X connect 29 0 30 0;
#X connect 30 0 2 0;
#X connect 31 0 32 1;
#X connect 32 0 1 0;
#X connect 33 0 32 0;
#X connect 34 0 35 0;
#X connect 35 0 36 1;
#X connect 36 0 37 0;
#X connect 38 0 36 0;
#X connect 39 0 36 0;
#X connect 40 0 36 0;
#X connect 41 0 36 0;
#X connect 42 0 36 0;
#X connect 43 0 10 0;
#X connect 44 0 8 0;
#X connect 45 0 48 1;
#X connect 45 0 47 1;
#X connect 45 0 46 1;
#X connect 45 0 43 1;
#X connect 45 0 44 1;
#X connect 46 0 12 0;
#X connect 47 0 14 0;
#X connect 48 0 16 0;
#X connect 49 0 33 0;
