#N canvas 0 22 450 300 10;
#X obj 337 190 bng 15 250 50 0 empty G_string bang_from_notes 17 7
0 10 -262144 -1 -1;
#X obj 221 346 *~;
#X obj 271 321 line~;
#X obj 221 406 dac~;
#X msg 268 242 1 10;
#X obj 329 242 del 10;
#X msg 329 263 0 2990;
#X obj 22 111 tgl 15 0 G2 empty G2_GUI 17 7 0 10 -262144 -1 -1 0 1
;
#X obj 22 45 bng 15 250 50 0 G_string G2_note empty 17 7 0 10 -262144
-1 -1;
#X obj 90 109 tgl 15 0 G\$2 empty G\$2_GUI 17 7 0 10 -262144 -1 -1
0 1;
#X obj 90 43 bng 15 250 50 0 G_string G\$2_note empty 17 7 0 10 -262144
-1 -1;
#X obj 161 109 tgl 15 0 A2 empty A2_GUI 17 7 0 10 -262144 -1 -1 0 1
;
#X obj 161 43 bng 15 250 50 0 G_string A2_note empty 17 7 0 10 -262144
-1 -1;
#X obj 230 108 tgl 15 0 A\$2 empty A\$2_GUI 17 7 0 10 -262144 -1 -1
0 1;
#X obj 230 42 bng 15 250 50 0 G_string A\$2_note empty 17 7 0 10 -262144
-1 -1;
#X obj 296 108 tgl 15 0 B3 empty B3_GUI 17 7 0 10 -262144 -1 -1 0 1
;
#X obj 296 42 bng 15 250 50 0 G_string B3_note empty 17 7 0 10 -262144
-1 -1;
#X text 345 20 G String;
#X floatatom 483 144 5 0 0 0 - tempo -, f 5;
#X obj 445 130 bng 15 250 50 0 empty tempoBang empty 17 7 0 10 -262144
-1 -1;
#X obj 446 153 6000;
#X obj 451 178 /;
#X obj 452 201 * 10;
#X obj 406 246 del;
#X obj 403 277 0 0;
#X msg 23 139 98;
#X msg 89 141 103.83;
#X msg 162 139 110;
#X msg 230 138 116.54;
#X msg 297 137 123.47;
#X floatatom 578 76 5 0 0 0 - phasorToggle -, f 5;
#X obj 578 97 == 0;
#X obj 565 126 *;
#X floatatom 565 150 5 0 0 0 - - natural_note, f 5;
#X obj 392 73 43;
#X obj 424 72 44;
#X obj 459 69 45;
#X obj 494 67 46;
#X obj 532 63 47;
#X floatatom 147 220 5 0 0 0 - amp -, f 5;
#X floatatom 222 263 5 0 0 0 - phasorToggle -, f 5;
#X obj 157 292 *~;
#X obj 118 249 *~;
#X floatatom 174 11 5 0 0 0 - tempoValue -, f 5;
#X obj 302 74 del;
#X obj 236 74 del;
#X obj 167 75 del;
#X obj 96 75 del;
#X obj 28 77 del;
#X obj 81 198 phasor~;
#X connect 0 0 4 0;
#X connect 0 0 5 0;
#X connect 0 0 23 0;
#X connect 1 0 3 1;
#X connect 1 0 3 0;
#X connect 2 0 1 1;
#X connect 4 0 2 0;
#X connect 5 0 6 0;
#X connect 6 0 2 0;
#X connect 7 0 25 0;
#X connect 8 0 7 0;
#X connect 8 0 34 0;
#X connect 8 0 48 0;
#X connect 9 0 26 0;
#X connect 10 0 9 0;
#X connect 10 0 35 0;
#X connect 10 0 47 0;
#X connect 11 0 27 0;
#X connect 12 0 11 0;
#X connect 12 0 36 0;
#X connect 12 0 46 0;
#X connect 13 0 28 0;
#X connect 14 0 13 0;
#X connect 14 0 37 0;
#X connect 14 0 45 0;
#X connect 15 0 29 0;
#X connect 16 0 15 0;
#X connect 16 0 38 0;
#X connect 16 0 44 0;
#X connect 18 0 21 1;
#X connect 19 0 20 0;
#X connect 20 0 21 0;
#X connect 21 0 22 0;
#X connect 22 0 23 1;
#X connect 23 0 24 0;
#X connect 24 0 2 0;
#X connect 25 0 49 0;
#X connect 26 0 49 0;
#X connect 27 0 49 0;
#X connect 28 0 49 0;
#X connect 29 0 49 0;
#X connect 30 0 31 0;
#X connect 31 0 32 1;
#X connect 32 0 33 0;
#X connect 34 0 32 0;
#X connect 35 0 32 0;
#X connect 36 0 32 0;
#X connect 37 0 32 0;
#X connect 38 0 32 0;
#X connect 39 0 42 1;
#X connect 40 0 41 1;
#X connect 41 0 1 0;
#X connect 42 0 41 0;
#X connect 43 0 44 1;
#X connect 43 0 45 1;
#X connect 43 0 46 1;
#X connect 43 0 47 1;
#X connect 43 0 48 1;
#X connect 44 0 15 0;
#X connect 45 0 13 0;
#X connect 46 0 11 0;
#X connect 47 0 9 0;
#X connect 48 0 7 0;
#X connect 49 0 42 0;
