#N canvas 113 71 901 300 10;
#X obj 269 22 bng 15 250 50 0 A1 A1_note bang_from_phase_overview 17
7 0 10 -262144 -1 -1;
#X obj 68 90 phasor~;
#X obj 83 192 *~;
#X obj 180 161 line~;
#X obj 74 257 dac~;
#X msg 157 78 1 10;
#X obj 669 22 bng 15 250 50 0 A2 A2_note bang_from_phase_overview 17
7 0 10 -262144 -1 -1;
#X obj 468 90 phasor~;
#X obj 477 180 *~;
#X obj 580 161 line~;
#X obj 474 257 dac~;
#X msg 557 78 1 10;
#X obj 637 73 del 10;
#X obj 237 73 del 10;
#X msg 235 120 0 2990;
#X msg 635 120 0 2990;
#X obj 121 199 tgl 15 0 empty A1_note empty 17 7 0 10 -262144 -1 -1
0 1;
#X obj 77 226 *~;
#X obj 137 230 bng 15 250 50 0 A1 empty A1-BassUI 17 7 0 10 -262144
-1 -1;
#X obj 530 235 bng 15 250 50 0 A2 empty A2-BassUI 17 7 0 10 -262144
-1 -1;
#X obj 478 229 *~;
#X obj 522 200 tgl 15 0 empty A2_note empty 17 7 0 10 -262144 -1 -1
0 1;
#X obj 59 50 55;
#X obj 459 50 110;
#X connect 0 0 5 0;
#X connect 0 0 13 0;
#X connect 1 0 2 0;
#X connect 2 0 17 0;
#X connect 3 0 2 1;
#X connect 5 0 3 0;
#X connect 6 0 11 0;
#X connect 6 0 12 0;
#X connect 7 0 8 0;
#X connect 8 0 20 0;
#X connect 9 0 8 1;
#X connect 11 0 9 0;
#X connect 12 0 15 0;
#X connect 13 0 14 0;
#X connect 14 0 3 0;
#X connect 15 0 9 0;
#X connect 16 0 17 1;
#X connect 16 0 18 0;
#X connect 17 0 4 0;
#X connect 17 0 4 1;
#X connect 20 0 10 0;
#X connect 20 0 10 1;
#X connect 21 0 20 1;
#X connect 21 0 19 0;
#X connect 22 0 1 0;
#X connect 23 0 7 0;
