#N canvas 543 142 901 300 10;
#X obj 269 22 bng 15 250 50 0 F1 F1_note bang_from_phase_overview 17
7 0 10 -262144 -1 -1;
#X obj 68 90 phasor~;
#X obj 79 198 *~;
#X obj 180 161 line~;
#X obj 74 257 dac~;
#X obj 128 232 bng 15 250 50 0 F1 empty F1-BassUI 17 7 0 10 -262144
-1 -1;
#X msg 157 78 1 10;
#X obj 59 50 43.7;
#X obj 669 22 bng 15 250 50 0 F2 F2_note bang_from_phase_overview 17
7 0 10 -262144 -1 -1;
#X obj 468 90 phasor~;
#X obj 479 193 *~;
#X obj 580 161 line~;
#X obj 474 257 dac~;
#X obj 528 231 bng 15 250 50 0 F2 empty F2-BassUI 17 7 0 10 -262144
-1 -1;
#X msg 557 78 1 10;
#X obj 459 50 87.3;
#X obj 637 73 del 10;
#X obj 237 73 del 10;
#X msg 235 120 0 2990;
#X msg 635 120 0 2990;
#X obj 76 228 *~;
#X obj 476 225 *~;
#X obj 116 203 tgl 15 0 empty F1_note empty 17 7 0 10 -262144 -1 -1
0 1;
#X obj 511 205 tgl 15 0 empty F2_note empty 17 7 0 10 -262144 -1 -1
0 1;
#X connect 0 0 6 0;
#X connect 0 0 17 0;
#X connect 1 0 2 0;
#X connect 2 0 20 0;
#X connect 3 0 2 1;
#X connect 6 0 3 0;
#X connect 7 0 1 0;
#X connect 8 0 14 0;
#X connect 8 0 16 0;
#X connect 9 0 10 0;
#X connect 10 0 21 0;
#X connect 11 0 10 1;
#X connect 14 0 11 0;
#X connect 15 0 9 0;
#X connect 16 0 19 0;
#X connect 17 0 18 0;
#X connect 18 0 3 0;
#X connect 19 0 11 0;
#X connect 20 0 4 0;
#X connect 20 0 4 1;
#X connect 21 0 12 0;
#X connect 21 0 12 1;
#X connect 22 0 20 1;
#X connect 22 0 5 0;
#X connect 23 0 21 1;
#X connect 23 0 13 0;
