#N canvas 543 142 901 300 10;
#X obj 269 21 bng 15 250 50 0 G\$1 G\$1_note bang_from_phase_overview
17 7 0 10 -262144 -1 -1;
#X obj 68 90 phasor~;
#X obj 79 198 *~;
#X obj 180 161 line~;
#X obj 74 257 dac~;
#X obj 128 232 bng 15 250 50 0 G\$1 empty G\$1-BassUI 17 7 0 10 -262144
-1 -1;
#X msg 157 78 1 10;
#X obj 669 22 bng 15 250 50 0 G\$2 G\$2_note bang_from_phase_overview
17 7 0 10 -262144 -1 -1;
#X obj 468 90 phasor~;
#X obj 479 193 *~;
#X obj 580 161 line~;
#X obj 474 257 dac~;
#X obj 528 231 bng 15 250 50 0 G\$2 empty G\$2-BassUI 17 7 0 10 -262144
-1 -1;
#X msg 557 78 1 10;
#X obj 637 73 del 10;
#X obj 237 73 del 10;
#X msg 235 120 0 2990;
#X msg 635 120 0 2990;
#X obj 76 228 *~;
#X obj 476 225 *~;
#X obj 116 203 tgl 15 0 empty G\$1_note empty 17 7 0 10 -262144 -1
-1 0 1;
#X obj 511 205 tgl 15 0 empty G\$2_note empty 17 7 0 10 -262144 -1
-1 0 1;
#X obj 59 50 51.9;
#X obj 460 50 103.8;
#X connect 0 0 6 0;
#X connect 0 0 15 0;
#X connect 1 0 2 0;
#X connect 2 0 18 0;
#X connect 3 0 2 1;
#X connect 6 0 3 0;
#X connect 7 0 13 0;
#X connect 7 0 14 0;
#X connect 8 0 9 0;
#X connect 9 0 19 0;
#X connect 10 0 9 1;
#X connect 13 0 10 0;
#X connect 14 0 17 0;
#X connect 15 0 16 0;
#X connect 16 0 3 0;
#X connect 17 0 10 0;
#X connect 18 0 4 0;
#X connect 18 0 4 1;
#X connect 19 0 11 0;
#X connect 19 0 11 1;
#X connect 20 0 18 1;
#X connect 20 0 5 0;
#X connect 21 0 19 1;
#X connect 21 0 12 0;
#X connect 22 0 1 0;
#X connect 23 0 8 0;
